<svg xmlns="http://www.w3.org/2000/svg" xmlns:xlink="http://www.w3.org/1999/xlink" width="47" height="46" viewBox="0 0 47 46">
  <defs>
    <clipPath id="clip-path">
      <rect id="Rectangle_2107" data-name="Rectangle 2107" width="47" height="46" rx="23" transform="translate(664 12)" fill="rgba(255,255,255,0.15)"/>
    </clipPath>
  </defs>
  <g id="add_request" transform="translate(-536 -12)">
    <g id="Group_1821" data-name="Group 1821" transform="translate(-128)">
      <g id="Rectangle_2106" data-name="Rectangle 2106" transform="translate(664 12)" fill="none" stroke="#fff" stroke-width="1">
        <rect width="47" height="46" rx="23" stroke="none"/>
        <rect x="0.5" y="0.5" width="46" height="45" rx="22.5" fill="none"/>
      </g>
      <g id="Mask_Group_54" data-name="Mask Group 54" clip-path="url(#clip-path)">
        <circle id="Ellipse_83" data-name="Ellipse 83" cx="30" cy="30" r="30" transform="translate(660 -18)" fill="rgba(255,255,255,0.15)"/>
      </g>
    </g>
    <g id="noun_complaint_1913622" transform="translate(543.555 19.944)">
      <path id="Path_4932" data-name="Path 4932" d="M25.8,5.9,23.084,8.616V4.343A2.345,2.345,0,0,0,20.741,2H4.343A2.345,2.345,0,0,0,2,4.343V6.217a.469.469,0,0,0,.469.469h3.28V27.3a2.814,2.814,0,0,0,2.811,2.811h16.4A2.814,2.814,0,0,0,27.769,27.3V25.9a.469.469,0,0,0-.469-.469H23.084v-10.8L28.8,8.907A2.125,2.125,0,1,0,25.8,5.9ZM5.748,5.748H2.937V4.343a1.406,1.406,0,0,1,2.811,0ZM10.434,25.9V27.3a1.874,1.874,0,0,1-3.748,0V4.343A2.318,2.318,0,0,0,6.2,2.937H20.741a1.406,1.406,0,0,1,1.406,1.406V9.553l-6.422,6.422s-.006.011-.01.015a.46.46,0,0,0-.085.129c0,.005-.006.01-.008.015l0,.007L14.211,19.89a.469.469,0,0,0,.6.6l3.748-1.406.007,0c.005,0,.01-.006.015-.008a.46.46,0,0,0,.129-.085s.011-.006.015-.01l3.417-3.417v9.863H10.9A.469.469,0,0,0,10.434,25.9Zm5.806-8.742,1.312,1.312-2.1.788Zm10.593,9.211V27.3a1.874,1.874,0,0,1-1.874,1.874h-14.3a2.8,2.8,0,0,0,.717-1.874v-.937ZM18.4,17.987l-1.68-1.68,7.068-7.068,1.68,1.68Zm7.731-7.731-1.68-1.68.743-.743,1.68,1.68Zm2.011-2.011-.606.606-1.68-1.68.606-.606a1.188,1.188,0,1,1,1.68,1.68Z" fill="#fff"/>
      <g id="Group_1819" data-name="Group 1819" transform="translate(8.193 3.885)">
        <rect id="Rectangle_2090" data-name="Rectangle 2090" width="3" height="1" transform="translate(0.252 18.171)" fill="#fff"/>
        <rect id="Rectangle_2091" data-name="Rectangle 2091" width="5" height="2" transform="translate(0.252 14.171)" fill="#fff"/>
        <rect id="Rectangle_2092" data-name="Rectangle 2092" width="5" height="1" transform="translate(0.252 11.171)" fill="#fff"/>
        <rect id="Rectangle_2093" data-name="Rectangle 2093" width="7" height="1" transform="translate(2.252 7.171)" fill="#fff"/>
        <rect id="Rectangle_2094" data-name="Rectangle 2094" width="1" height="1" transform="translate(5.252 11.171)" fill="#fff"/>
        <rect id="Rectangle_2095" data-name="Rectangle 2095" width="1" height="1" transform="translate(0.252 7.171)" fill="#fff"/>
        <rect id="Rectangle_2096" data-name="Rectangle 2096" width="1" height="1" transform="translate(10.252 18.171)" fill="#fff"/>
        <rect id="Rectangle_2097" data-name="Rectangle 2097" width="4" height="1" transform="translate(5.252 18.171)" fill="#fff"/>
        <rect id="Rectangle_2098" data-name="Rectangle 2098" width="2" height="1" transform="translate(5.252 0.171)" fill="#fff"/>
        <rect id="Rectangle_2099" data-name="Rectangle 2099" width="2" height="1" transform="translate(5.252 5.171)" fill="#fff"/>
        <rect id="Rectangle_2100" data-name="Rectangle 2100" width="0.937" height="0.937" transform="translate(4.139 1.144) rotate(-45)" fill="#fff"/>
        <rect id="Rectangle_2101" data-name="Rectangle 2101" width="0.937" height="0.937" transform="translate(7.451 4.457) rotate(-45)" fill="#fff"/>
        <rect id="Rectangle_2102" data-name="Rectangle 2102" width="2" height="1" transform="translate(3.252 2.171)" fill="#fff"/>
        <rect id="Rectangle_2103" data-name="Rectangle 2103" width="1" height="1" transform="translate(8.252 2.171)" fill="#fff"/>
        <rect id="Rectangle_2104" data-name="Rectangle 2104" width="0.937" height="0.937" transform="translate(4.138 4.457) rotate(-45)" fill="#fff"/>
        <rect id="Rectangle_2105" data-name="Rectangle 2105" width="0.937" height="0.937" transform="translate(7.451 1.144) rotate(-45)" fill="#fff"/>
      </g>
    </g>
  </g>
</svg>
