<?xml version="1.0" encoding="utf-8"?>
<!-- Generator: Adobe Illustrator 23.0.3, SVG Export Plug-In . SVG Version: 6.00 Build 0)  -->
<svg version="1.1" id="Capa_1" xmlns="http://www.w3.org/2000/svg" xmlns:xlink="http://www.w3.org/1999/xlink" x="0px" y="0px"
	 viewBox="0 0 512 512" style="enable-background:new 0 0 512 512;" xml:space="preserve">
<style type="text/css">
	.st0{fill:url(#SVGID_1_);}
	.st1{fill:url(#SVGID_2_);}
	.st2{fill:#FFFFFF;stroke:#FFFFFF;stroke-width:2.1885;stroke-miterlimit:10;}
	.st3{fill:#FFFFFF;stroke:#FFFFFF;stroke-width:4.377;stroke-miterlimit:10;}
	.st4{fill:#FFFFFF;stroke:#FFFFFF;stroke-width:1.0943;stroke-miterlimit:10;}
</style>
<g>
	<linearGradient id="SVGID_1_" gradientUnits="userSpaceOnUse" x1="55.4" y1="249.0586" x2="456.6" y2="249.0586">
		<stop  offset="0" style="stop-color:#69AEF4"/>
		<stop  offset="1" style="stop-color:#2E75F1"/>
	</linearGradient>
	<circle class="st0" cx="256" cy="249.1" r="200.6"/>
	
		<linearGradient id="SVGID_2_" gradientUnits="userSpaceOnUse" x1="447.2055" y1="69.9668" x2="47.0746" y2="470.0977" gradientTransform="matrix(1.0039 0 0 -1.0039 0.1608 514.5443)">
		<stop  offset="0" style="stop-color:#7FAEF4"/>
		<stop  offset="1" style="stop-color:#4C8DF1"/>
	</linearGradient>
	<circle class="st1" cx="256" cy="251.2" r="171.1"/>
	<g>
		<path class="st2" d="M361.9,302.7l-5.9-3c-0.2-1.3-0.4-2.5-0.6-3.8l4.7-5.5c0.8-1.1,1.3-2.5,0.6-4c-2.1-5.9-5.1-11.2-8.9-16.1
			c-1.1-1.3-2.5-1.9-4.2-1.5l-6.1,1.5c-1.5-1.5-3.2-3-4.9-4.2v-7c0-1.5-0.8-2.7-2.1-3.6c-0.6-0.4-1.1-0.6-1.7-0.8
			c-4.4-2.3-9.1-4.2-14.2-5.3c-1.5-0.4-3.2,0.2-4.2,1.5l-3.2,5.1c-3.2-0.4-6.3-0.4-9.3-0.2l-4.2-5.3c-1.1-1.1-2.5-1.7-4-1.3
			c-5.1,1.1-9.9,3-14.8,5.3c-1.5,0.6-2.3,2.3-2.1,3.8l0.4,6.1c-3.2,2.1-5.9,4.7-8.7,7.4l-6.3-1.1c-1.5-0.2-3.2,0.4-4,1.7
			c-1.7,2.3-3,4.4-4,6.6s-2.1,4.4-3,6.8c-0.6,1.5-0.2,3.2,0.8,4.2l4.4,4.7c-0.8,3.6-1.3,7.4-1.3,11.2l-5.5,3c-1.5,0.8-2.1,2.3-1.9,4
			c0.6,5.3,1.9,10.4,3.8,15.2c0.6,1.5,1.9,2.3,3.4,2.5l6.8,0.6c1.5,2.7,3.4,5.3,5.3,7.6l-2.1,5.7c-0.6,1.5-0.2,3.2,1.1,4.2
			c3.8,3.6,8,6.6,12.7,9.1c0.2,0.2,0.6,0.2,0.8,0.4l0.4,0.2c1.3,0.6,2.7,0.6,4-0.2l5.9-4c1.9,0.6,4,1.3,6.1,1.7l2.1,5.9
			c0.6,1.5,1.9,2.5,3.4,2.5c1.5,0.2,3,0.2,4.4,0.2c4.7,0,9.5-0.6,14.2-1.7c1.5-0.4,2.5-1.5,3-2.7l1.9-6.8c1.1-0.4,2.3-1.1,3.4-1.5
			l5.7,3.4c1.3,0.8,3,0.6,4.2-0.2c5.5-3.6,10.2-8,14.2-13.3c0.8-1.3,1.1-2.7,0.4-4l-2.7-6.3c0.2-0.4,0.6-1.1,0.8-1.5
			c0.2-0.2,0.2-0.6,0.4-0.8l6.8-1.3c1.5-0.2,2.5-1.3,3.2-2.5c2.1-6.1,3.2-12.7,3.2-19C364.3,304.6,363.4,303.3,361.9,302.7z
			 M354.3,320.5l-6.6,1.1c-1.3,0.2-2.3,1.1-3,2.3c-0.4,0.8-0.8,1.7-1.3,2.5c-0.4,1.1-1.1,1.9-1.7,2.7c-0.6,1.1-0.8,2.5-0.2,3.8
			l2.7,5.9c-2.5,3-5.5,5.9-8.7,8.2l-5.5-3.2c-1.3-0.6-2.7-0.6-4,0c-1.9,1.1-4,1.9-6.1,2.7c-1.3,0.4-2.1,1.5-2.5,2.7l-1.9,6.6
			c-3.6,0.6-7.4,1.1-11.2,1.1l-1.9-5.9c-0.4-1.5-1.7-2.3-3.2-2.5c-3-0.4-5.9-1.3-8.7-2.3c-1.3-0.4-2.5-0.2-3.6,0.4l-5.5,3.8
			c-3-1.7-5.5-3.4-8-5.5l1.9-5.5c0.4-1.5,0.2-3-0.8-4c-2.5-2.7-4.9-6.1-6.8-9.5c-0.6-1.3-1.9-2.1-3.2-2.1l-6.3-0.6
			c-0.8-2.7-1.7-5.5-2.1-8.2l5.1-3c1.3-0.8,2.1-2.1,2.1-3.6c-0.2-4.7,0.4-9.1,1.7-13.3c0.4-1.5,0-3-1.1-3.8l-4.2-4.4
			c0.4-1.3,1.1-2.3,1.7-3.4c0.6-1.3,1.3-2.3,2.1-3.6l5.9,1.1c1.5,0.2,3-0.2,3.8-1.5c3-3.4,6.3-6.6,10.2-8.9c1.3-0.8,1.9-2.1,1.9-3.8
			l-0.4-6.1c2.5-1.3,5.3-2.1,8-3l4,4.9c0.8,1.1,2.1,1.5,3.6,1.5c4-0.4,8-0.4,11.8,0.2c1.5,0.2,3-0.4,3.8-1.7l3.4-4.7
			c3.2,0.8,6.1,2.1,9.1,3.6v6.8c0,1.3,0.6,2.5,1.7,3.4c2.5,1.9,4.9,3.8,7,6.1c1.1,1.1,2.5,1.5,4,1.3l5.7-1.5c2.1,3,4,6.3,5.3,9.7
			l-4.4,5.1c-0.8,1.1-1.1,2.3-0.8,3.6c0.6,2.1,0.8,4.4,1.1,6.8c0.2,1.5,1.1,2.5,2.3,3.2l5.5,2.7C356,312.6,355.4,316.7,354.3,320.5z
			"/>
		<path class="st3" d="M317.1,285.8c-3.4-1.9-7.4-2.7-11.2-2.7c-8.9,0-17.1,4.9-21.2,12.7c-3,5.7-3.6,12.1-1.7,18.2
			c1.9,6.1,6.1,11.2,11.6,14.2c3.4,1.9,7.4,2.7,11.2,2.7c8.9,0,17.1-4.9,21.2-12.7c3-5.7,3.6-12.1,1.7-18.2
			C327,293.8,322.8,288.7,317.1,285.8z M320.1,314.5c-2.7,5.3-8.2,8.5-14.2,8.5c-2.5,0-5.1-0.6-7.4-1.9c-3.8-1.9-6.6-5.3-7.8-9.3
			c-1.3-4-0.8-8.5,1.1-12.3c2.7-5.3,8.2-8.5,14.2-8.5c2.5,0,5.1,0.6,7.4,1.9c3.8,1.9,6.6,5.3,7.8,9.3
			C322.4,306.3,322,310.7,320.1,314.5z"/>
		<path class="st2" d="M237.4,326.8h-62.8c-1.7,0-3.2-1.5-3.2-3.2V202.2h154.8V239c0,2.1,1.9,4,4,4s4-1.9,4-4v-63.9
			c0-6.1-5.1-11.2-11.2-11.2H174.5c-6.1,0-11.2,5.1-11.2,11.2v148.5c0,6.1,5.1,11.2,11.2,11.2h62.8c2.1,0,4-1.9,4-4
			C241.4,328.5,239.5,326.8,237.4,326.8z M174.5,172H323c1.7,0,3.2,1.5,3.2,3.2v19H171.4v-19C171.4,173.5,172.9,172,174.5,172z"/>
		<path class="st4" d="M228.3,187.2H315c2.1,0,4-1.9,4-4s-1.9-4-4-4h-86.7c-2.1,0-4,1.9-4,4S225.9,187.2,228.3,187.2z"/>
		<path class="st4" d="M183.2,187.4c6.6,0,6.6-10.2,0-10.2C176.9,177.5,176.9,187.4,183.2,187.4z"/>
		<path class="st4" d="M196.3,187.9c6.6,0,6.6-10.2,0-10.2S189.8,187.9,196.3,187.9z"/>
		<path class="st4" d="M209.4,188.3c6.6,0,6.6-10.2,0-10.2C202.9,178.1,202.9,188.3,209.4,188.3z"/>
	</g>
</g>
</svg>
