<svg xmlns="http://www.w3.org/2000/svg" width="19.268" height="19.993" viewBox="0 0 19.268 19.993">
  <defs>
    <style>
      .cls-1 {
        fill: #fff;
      }
    </style>
  </defs>
  <g id="Group_839" data-name="Group 839" transform="translate(-1279.352 -84.964)">
    <g id="noun_File_850153" transform="translate(1273.152 80.885)">
      <g id="Group_838" data-name="Group 838" transform="translate(6.2 4.079)">
        <path id="Path_1422" data-name="Path 1422" class="cls-1" d="M25.339,18.02,20.771,5.5A2.152,2.152,0,0,0,18,4.216L11.952,6.4H8.367A2.163,2.163,0,0,0,6.2,8.567V21.9a2.163,2.163,0,0,0,2.167,2.167h9.17a2.182,2.182,0,0,0,2.134-1.8L24.022,20.8a2.116,2.116,0,0,0,1.217-1.117A2.079,2.079,0,0,0,25.339,18.02ZM18.7,21.9a1.16,1.16,0,0,1-1.167,1.167H8.367A1.16,1.16,0,0,1,7.2,21.9V8.567A1.16,1.16,0,0,1,8.367,7.4h9.17A1.16,1.16,0,0,1,18.7,8.567ZM18.37,6.4h-3.5l3.468-1.267a1.2,1.2,0,0,1,.9.033,1.129,1.129,0,0,1,.6.667l.534,1.45A2.73,2.73,0,0,0,18.37,6.4Zm5.985,12.854a1.148,1.148,0,0,1-.65.6l-2.667.9V9.167l3.351,9.2A1.09,1.09,0,0,1,24.356,19.254Z" transform="translate(-6.2 -4.079)"/>
      </g>
      <path id="Path_1423" data-name="Path 1423" class="cls-1" d="M30.836,63H24a.5.5,0,0,0,0,1h6.835a.5.5,0,0,0,0-1Z" transform="translate(-14.416 -49.098)"/>
      <path id="Path_1424" data-name="Path 1424" class="cls-1" d="M30.836,78H24a.5.5,0,0,0,0,1h6.835a.5.5,0,0,0,0-1Z" transform="translate(-14.416 -61.597)"/>
      <path id="Path_1425" data-name="Path 1425" class="cls-1" d="M28.418,93H24a.5.5,0,0,0,0,1h4.418a.5.5,0,1,0,0-1Z" transform="translate(-14.416 -74.096)"/>
    </g>
  </g>
</svg>
