<svg xmlns="http://www.w3.org/2000/svg" width="26.231" height="22.175" viewBox="0 0 26.231 22.175">
  <g id="com_main" transform="translate(-2.885 -5.435)">
    <path id="Path_1503" data-name="Path 1503" d="M22.132,3H4.1A3.943,3.943,0,0,0,0,6.745v8.049a3.943,3.943,0,0,0,4.1,3.779H16.673a2.689,2.689,0,0,1,1.771.648l6.418,5.738a.82.82,0,0,0,1.369-.648V6.745A3.943,3.943,0,0,0,22.132,3Zm2.459,19.484-5.049-4.508a4.287,4.287,0,0,0-2.869-1.066H4.1A2.3,2.3,0,0,1,1.639,14.8V6.745A2.3,2.3,0,0,1,4.1,4.639H22.132a2.3,2.3,0,0,1,2.459,2.107Z" transform="translate(2.885 2.439)" fill="#fff"/>
    <line id="Line_80" data-name="Line 80" x2="14" transform="translate(9.5 10.496)" fill="none" stroke="#fff" stroke-linecap="round" stroke-width="1.5"/>
    <line id="Line_81" data-name="Line 81" x2="14" transform="translate(9.5 15.496)" fill="none" stroke="#fff" stroke-linecap="round" stroke-width="1.5"/>
  </g>
</svg>
