<svg xmlns="http://www.w3.org/2000/svg" width="24.903" height="22.757" viewBox="0 0 24.903 22.757">
  <g id="control" transform="translate(-0.7 -4.9)">
    <g id="Group_944" data-name="Group 944" transform="translate(0.7 4.9)">
      <g id="Group_943" data-name="Group 943">
        <path id="Path_1516" data-name="Path 1516" d="M5.246,17.933V16.847a.679.679,0,0,1,.682-.682h1.01a6.021,6.021,0,0,1,.935-2.273l-.732-.732a.657.657,0,0,1,0-.96l.783-.783a.657.657,0,0,1,.96,0l.732.732a6.021,6.021,0,0,1,2.273-.935V10.2a.679.679,0,0,1,.682-.682h1.086a.679.679,0,0,1,.682.682v1.01a6.021,6.021,0,0,1,2.273.935l.732-.732a.657.657,0,0,1,.96,0l.783.783a.657.657,0,0,1,0,.96l-.732.732a6.021,6.021,0,0,1,.935,2.273H20.3a.679.679,0,0,1,.682.682v1.086a.679.679,0,0,1-.682.682H16.157V17.377a3.006,3.006,0,0,0-6.011,0v1.238H5.9A.674.674,0,0,1,5.246,17.933ZM25.6,6.921V21.039a2.026,2.026,0,0,1-2.021,2.021H15.4v2.248h1.591a.48.48,0,0,1,.48.48v1.389a.48.48,0,0,1-.48.48H9.313a.48.48,0,0,1-.48-.48V25.787a.48.48,0,0,1,.48-.48H10.9V23.06H2.721A2.026,2.026,0,0,1,.7,21.039V6.921A2.026,2.026,0,0,1,2.721,4.9H23.608A2.055,2.055,0,0,1,25.6,6.921Zm-2,.306H2.721V21.039H23.583l.051-13.813Z" transform="translate(-0.7 -4.9)" fill="#fff"/>
      </g>
    </g>
  </g>
</svg>
