<?xml version="1.0" encoding="utf-8"?>
<!-- Generator: Adobe Illustrator 23.0.3, SVG Export Plug-In . SVG Version: 6.00 Build 0)  -->
<svg version="1.1" id="Layer_1" xmlns="http://www.w3.org/2000/svg" xmlns:xlink="http://www.w3.org/1999/xlink" x="0px" y="0px"
	 viewBox="0 0 27.2 22.4" style="enable-background:new 0 0 27.2 22.4;" xml:space="preserve">
<style type="text/css">
	.st0{fill:#FFFFFF;}
</style>
<path class="st0" d="M25.5,9.6L14.2,0.4c-0.4-0.3-0.8-0.3-1.2,0L1.7,9.6l1.2,1.4l1.7-1.4v10.9c0,0.5,0.4,0.9,0.9,0.9h5.7
	c0.5,0,0.9-0.4,0.9-0.9v-5.1H15v5.1c0,0.5,0.4,0.9,0.9,0.9h5.7c0.5,0,0.9-0.4,0.9-0.9V9.6l1.7,1.4L25.5,9.6z M20.7,19.6h-3.8v-5.1
	c0-0.5-0.4-0.9-0.9-0.9h-4.7c-0.5,0-0.9,0.4-0.9,0.9v5.1H6.5V8.1l7.1-5.8l7.1,5.8V19.6z"/>
</svg>
