<svg xmlns="http://www.w3.org/2000/svg" width="349.71" height="66.6" viewBox="0 0 349.71 66.6">
  <g id="logo" transform="translate(-251.57 -231.31)">
    <g id="Group_12176" data-name="Group 12176">
      <g id="Group_12174" data-name="Group 12174">
        <path id="Path_5179" data-name="Path 5179" d="M568.08,231.31a33.3,33.3,0,1,0,33.2,33.3A33.287,33.287,0,0,0,568.08,231.31Zm0,63.27a29.97,29.97,0,1,1,29.89-29.97A29.93,29.93,0,0,1,568.08,294.58Z" fill="#63be6a"/>
        <path id="Path_5180" data-name="Path 5180" d="M585.7,277.38a9.037,9.037,0,0,0-3.83-.69c-3.09,0-7.82.96-13.75,5.32l-.03.02-.12-.09c-5.93-4.36-10.59-5.24-13.68-5.24a9.331,9.331,0,0,0-3.84.69c-.07.04-.21.12-.18.25.02.08.1.12.22.12a1.041,1.041,0,0,0,.11-.01,8.964,8.964,0,0,1,2.23-.27c4.01,0,9.19,3.03,13.33,6.05-.84.69-1.69,1.43-2.57,2.26-.12-.11-.17-.14-.28-.23a3.653,3.653,0,0,0-1.07-.65,1.135,1.135,0,0,0-.63-.05.829.829,0,0,0-.62.93.726.726,0,0,0,.63.71.681.681,0,0,0,.62-.35q.24.2.45.39l.19.19-.26.23c-.2.18-.4.35-.6.52a5.474,5.474,0,0,1-1.3.87,1.185,1.185,0,0,1-.53.13c-.09-.01-.19-.04-.29-.06l-.07-.02c-.01,0-.02-.01-.03-.01a.619.619,0,0,0-.19-.07c-.03,0-.06-.01-.09-.01a.375.375,0,0,0-.35.21.789.789,0,0,0-.06.53.82.82,0,0,0,.19.33,1.735,1.735,0,0,0,1.12.6,1.925,1.925,0,0,0,.24.01,2.173,2.173,0,0,0,.25-.01,3.467,3.467,0,0,0,1.06-.31,8.236,8.236,0,0,0,1.77-1.13l.52-.42c.17.17.35.33.53.5a2.4,2.4,0,0,0,.82.52.929.929,0,0,0,.29.05.486.486,0,0,0,.12-.01.677.677,0,0,0,.14-.02.761.761,0,0,0,.57-.65.881.881,0,0,0-.33-.87.627.627,0,0,0-.79.09.9.9,0,0,0-.09.1c-.14-.14-.27-.28-.4-.43.87-.78,1.92-1.59,2.92-2.39,1.01.8,2.12,1.61,2.99,2.39-.13.15-.27.29-.4.43a.43.43,0,0,0-.09-.1.626.626,0,0,0-.79-.09.9.9,0,0,0-.33.87.75.75,0,0,0,.57.65.675.675,0,0,0,.14.02c.04,0,.08.01.11.01a.929.929,0,0,0,.29-.05,2.5,2.5,0,0,0,.82-.52c.18-.16.36-.33.53-.5l.52.42a8.487,8.487,0,0,0,1.77,1.13,3.142,3.142,0,0,0,1.06.31,2.088,2.088,0,0,0,.25.01,1.925,1.925,0,0,0,.24-.01,1.735,1.735,0,0,0,1.12-.6.82.82,0,0,0,.19-.33.789.789,0,0,0-.06-.53.4.4,0,0,0-.35-.21.277.277,0,0,0-.09.01.619.619,0,0,0-.19.07c-.01,0-.02.01-.03.01l-.07.02a1.154,1.154,0,0,1-.29.06,1.042,1.042,0,0,1-.53-.13,5.474,5.474,0,0,1-1.3-.87c-.2-.17-.4-.34-.6-.52l-.26-.23.19-.19q.21-.2.45-.39a.689.689,0,0,0,.62.35.726.726,0,0,0,.63-.71.829.829,0,0,0-.62-.93,1.135,1.135,0,0,0-.63.05,3.654,3.654,0,0,0-1.07.65c-.12.1-.16.13-.28.23-.85-.8-1.74-1.58-2.57-2.26,4.14-3.01,9.32-6.04,13.32-6.04a8.963,8.963,0,0,1,2.23.27c.02,0,.06.01.11.01.12,0,.19-.04.22-.12C585.91,277.5,585.77,277.42,585.7,277.38Z" fill="#63be6a"/>
        <path id="Path_5181" data-name="Path 5181" d="M569.81,275.51a13.088,13.088,0,0,0-.85,2.25,9.088,9.088,0,0,1,2.77-.89c4.83-1.04,5.13-5.43,5.27-6.29-.13.24-.47.76-3.42.9-1.54.07-4.11.26-5.44,2.8a7.169,7.169,0,0,1,.55,1.56c1.66-3.96,5.74-3.42,6.44-3.57C574.44,272.58,571.48,272.73,569.81,275.51Z" fill="#63be6a"/>
        <path id="Path_5182" data-name="Path 5182" d="M567.99,280.15l.73-.36c-.18-7.77-4.38-8.22-6.41-8.31-2.95-.14-3.29-.65-3.42-.9.14.86.45,5.25,5.27,6.29a5.353,5.353,0,0,1,2.2.73c-.56-5.08-4.76-4.95-5.6-5.32.8.17,6.77-1.1,6.49,7.51Z" fill="#63be6a"/>
        <path id="Path_5183" data-name="Path 5183" d="M565.55,257.76a2.682,2.682,0,0,0,2.41,2.78,2.633,2.633,0,0,0,2.41-2.78c.03-2.13-2.41-6.18-2.41-6.18S565.41,255.53,565.55,257.76Zm3.45,1.82a1.707,1.707,0,0,1-1.06.39,2.017,2.017,0,0,1-1.86-2.15,5.424,5.424,0,0,1,.43-1.62,3.31,3.31,0,0,0-.13.78,2.475,2.475,0,0,0,2.28,2.63A1.954,1.954,0,0,0,569,259.58Z" fill="#63be6a"/>
        <path id="Path_5184" data-name="Path 5184" d="M561.33,265.98c0,4.43,6.28,5.85,6.28,5.85v-1.38c0-4.6-6.28-5.85-6.28-5.85Z" fill="#63be6a"/>
        <path id="Path_5185" data-name="Path 5185" d="M568.26,270.45v1.38s6.28-1.42,6.28-5.85V264.6C574.55,264.6,568.26,265.85,568.26,270.45Z" fill="#63be6a"/>
        <path id="Path_5186" data-name="Path 5186" d="M562.92,260.99c0,3.6,4.78,4.75,4.78,4.75v-1.12c0-3.74-4.78-4.75-4.78-4.75Z" fill="#63be6a"/>
        <path id="Path_5187" data-name="Path 5187" d="M568.19,264.63v1.12s4.78-1.15,4.78-4.75v-1.12C572.96,259.87,568.19,260.89,568.19,264.63Z" fill="#63be6a"/>
        <path id="Path_5188" data-name="Path 5188" d="M551.24,253.32c4.15-4.18,6.81-4.92,10.13-5.44-3.4,2.16-6.57,7.19-5.58,10.73,1.8-3.76,4.93-7.43,7.82-8.76a6.6,6.6,0,0,0-.11,7.6c.36-3.17,2.58-6.22,4.43-8.26,1.85,2.04,4.07,5.09,4.43,8.26a6.615,6.615,0,0,0-.11-7.6c2.89,1.34,6.02,5.01,7.82,8.76.99-3.54-2.18-8.57-5.58-10.73,3.32.52,5.98,1.26,10.13,5.44-1.37-5.59-6.19-7.53-10.04-8.22,4.24-.36,5.08.07,8.83,1.62-4.07-4.01-6.92-4.73-10.99-4.34a5.418,5.418,0,0,1,2.39-1.21c-1.71-.67-4.38-.32-5.42.68a3.8,3.8,0,0,0-1.43-2.58v-.02l-.01.01-.01-.01v.02a3.8,3.8,0,0,0-1.43,2.58c-1.04-1-3.71-1.35-5.42-.68a5.364,5.364,0,0,1,2.39,1.21c-4.07-.39-6.93.33-10.99,4.34,3.75-1.55,4.59-1.99,8.83-1.62C557.43,245.79,552.61,247.72,551.24,253.32Z" fill="#63be6a"/>
      </g>
      <g id="Group_12175" data-name="Group 12175">
        <path id="Path_5189" data-name="Path 5189" d="M256.95,282.35h-.03l-2.83-7.28h-2.06v9.48h1.28v-7.92h.03l3.13,7.92h.84l3.15-7.92h.02v7.92h1.33v-9.48h-2.06Z" fill="#103557"/>
        <rect id="Rectangle_2032" data-name="Rectangle 2032" width="1.26" height="6.34" transform="translate(264.06 278.2)" fill="#103557"/>
        <path id="Path_5190" data-name="Path 5190" d="M264.68,275.1a.8.8,0,0,0-.58.23.809.809,0,0,0,0,1.15.776.776,0,0,0,.58.23.84.84,0,0,0,.59-.23.762.762,0,0,0,.25-.58.743.743,0,0,0-.25-.58A.878.878,0,0,0,264.68,275.1Z" fill="#103557"/>
        <path id="Path_5191" data-name="Path 5191" d="M272.6,278.79a2.2,2.2,0,0,0-.74-.56,2.683,2.683,0,0,0-1.73-.12,2.4,2.4,0,0,0-.59.26,2.276,2.276,0,0,0-.48.39,2.011,2.011,0,0,0-.33.47h-.04c0-.13,0-.3-.01-.5s-.02-.38-.04-.54h-1.19c.02.21.03.44.04.71s.01.49.01.66v4.98h1.26v-3.37a2.339,2.339,0,0,1,.47-1.52,1.53,1.53,0,0,1,1.22-.57,1.4,1.4,0,0,1,.72.16,1.21,1.21,0,0,1,.44.43,1.691,1.691,0,0,1,.22.62,4.348,4.348,0,0,1,.06.74v3.52h1.26v-3.94a3.552,3.552,0,0,0-.14-1A2.047,2.047,0,0,0,272.6,278.79Z" fill="#103557"/>
        <rect id="Rectangle_2033" data-name="Rectangle 2033" width="1.26" height="6.34" transform="translate(275.31 278.2)" fill="#103557"/>
        <path id="Path_5192" data-name="Path 5192" d="M275.94,275.1a.816.816,0,0,0-.58.23.809.809,0,0,0,0,1.15.776.776,0,0,0,.58.23.84.84,0,0,0,.59-.23.762.762,0,0,0,.25-.58.743.743,0,0,0-.25-.58A.9.9,0,0,0,275.94,275.1Z" fill="#103557"/>
        <path id="Path_5193" data-name="Path 5193" d="M282.51,281.42a2.594,2.594,0,0,0-.68-.37,6.378,6.378,0,0,0-.84-.25,5.046,5.046,0,0,1-1.08-.35.639.639,0,0,1-.36-.6.653.653,0,0,1,.1-.38.809.809,0,0,1,.27-.25,1.162,1.162,0,0,1,.38-.15,2.1,2.1,0,0,1,.43-.05,1.706,1.706,0,0,1,.87.22,1.648,1.648,0,0,1,.6.57l.87-.74a2.191,2.191,0,0,0-.98-.78,3.317,3.317,0,0,0-1.32-.27,3.659,3.659,0,0,0-.88.11,2.306,2.306,0,0,0-.76.35,1.944,1.944,0,0,0-.54.6,1.763,1.763,0,0,0-.21.88,1.527,1.527,0,0,0,.17.74,1.607,1.607,0,0,0,.43.5,2.135,2.135,0,0,0,.6.31,5.314,5.314,0,0,0,.65.19,6.227,6.227,0,0,1,1.24.4.694.694,0,0,1,.42.66.818.818,0,0,1-.11.44.78.78,0,0,1-.29.28,1.276,1.276,0,0,1-.4.15,2.315,2.315,0,0,1-.46.05,1.932,1.932,0,0,1-.98-.25,2.045,2.045,0,0,1-.7-.63l-.9.76a2.786,2.786,0,0,0,1.14.86,3.656,3.656,0,0,0,1.41.28,4.238,4.238,0,0,0,.94-.11,2.458,2.458,0,0,0,.81-.35,1.761,1.761,0,0,0,.57-.64,1.99,1.99,0,0,0,.21-.95,1.473,1.473,0,0,0-.16-.72A2.194,2.194,0,0,0,282.51,281.42Z" fill="#103557"/>
        <path id="Path_5194" data-name="Path 5194" d="M286.13,276.38h-1.24v1.82h-1.22v1.03h1.22v3.44a2.069,2.069,0,0,0,.48,1.49,1.813,1.813,0,0,0,1.37.5,3.454,3.454,0,0,0,.57-.05,2.436,2.436,0,0,0,.5-.13l-.04-1.03a1.374,1.374,0,0,1-.36.11,1.67,1.67,0,0,1-.37.04.835.835,0,0,1-.68-.25,1.262,1.262,0,0,1-.21-.82v-3.3h1.69V278.2h-1.69v-1.82Z" fill="#103557"/>
        <path id="Path_5195" data-name="Path 5195" d="M291.13,278.37a2.264,2.264,0,0,0-.78.9h-.04c0-.13,0-.31-.01-.52s-.02-.39-.04-.56h-1.19c.02.21.03.44.04.71s.01.49.01.66v4.98h1.26v-3.33a2.81,2.81,0,0,1,.11-.77,1.816,1.816,0,0,1,.33-.65,1.55,1.55,0,0,1,.56-.45,1.769,1.769,0,0,1,.79-.17,2.194,2.194,0,0,1,.58.07l.05-1.16a1.791,1.791,0,0,0-.5-.05A2.035,2.035,0,0,0,291.13,278.37Z" fill="#103557"/>
        <path id="Path_5196" data-name="Path 5196" d="M296.39,283.18h-.03l-1.97-4.98H293l2.72,6.34-.4,1.06a2.545,2.545,0,0,1-.44.78.945.945,0,0,1-.74.27,2.04,2.04,0,0,1-.63-.11l-.12,1.11a2.048,2.048,0,0,0,.42.07c.14.01.27.02.41.02a2.468,2.468,0,0,0,.81-.12,1.768,1.768,0,0,0,.6-.34,2.123,2.123,0,0,0,.44-.54,6.062,6.062,0,0,0,.35-.72l3.08-7.84h-1.34Z" fill="#103557"/>
        <path id="Path_5197" data-name="Path 5197" d="M309.49,278.97a3.491,3.491,0,0,0-1.09-.69,3.77,3.77,0,0,0-2.7,0,3.175,3.175,0,0,0-1.08.69,3.269,3.269,0,0,0-.72,1.05,3.456,3.456,0,0,0-.26,1.35,3.492,3.492,0,0,0,.26,1.35,3.115,3.115,0,0,0,.72,1.06,3.2,3.2,0,0,0,1.08.7,3.765,3.765,0,0,0,1.35.25,3.561,3.561,0,0,0,1.35-.25,3.344,3.344,0,0,0,1.09-.7,3.115,3.115,0,0,0,.72-1.06,3.635,3.635,0,0,0,0-2.7A2.981,2.981,0,0,0,309.49,278.97Zm-.47,3.27a2.1,2.1,0,0,1-1.07,1.24,2.174,2.174,0,0,1-.91.19,2.059,2.059,0,0,1-.91-.19,1.754,1.754,0,0,1-.66-.51,2.187,2.187,0,0,1-.41-.73,2.782,2.782,0,0,1-.14-.87,2.829,2.829,0,0,1,.14-.87,2.093,2.093,0,0,1,.41-.73,1.926,1.926,0,0,1,.66-.5,2.174,2.174,0,0,1,.91-.19,2.059,2.059,0,0,1,.91.19,1.836,1.836,0,0,1,.66.5,2.093,2.093,0,0,1,.41.73,2.83,2.83,0,0,1,.14.87A2.559,2.559,0,0,1,309.02,282.24Z" fill="#103557"/>
        <path id="Path_5198" data-name="Path 5198" d="M313.75,274.47a2.051,2.051,0,0,0-.74.55,2.278,2.278,0,0,0-.42.82,4.229,4.229,0,0,0-.13,1.04v1.33H311.2v1.03h1.26v5.31h1.26v-5.31h1.47v-1.03h-1.47v-1.33a3.478,3.478,0,0,1,.04-.57,1.487,1.487,0,0,1,.16-.49.855.855,0,0,1,.34-.34,1.214,1.214,0,0,1,.58-.13,1.615,1.615,0,0,1,.33.03,2.458,2.458,0,0,1,.29.07l.15-1.08a3.067,3.067,0,0,0-.79-.09A2.527,2.527,0,0,0,313.75,274.47Z" fill="#103557"/>
        <path id="Path_5199" data-name="Path 5199" d="M321.42,280.21h4.47v-1.14h-4.47v-2.83h4.76v-1.17H320.1v9.48h6.28v-1.18h-4.96Z" fill="#103557"/>
        <path id="Path_5200" data-name="Path 5200" d="M333.16,278.79a2.2,2.2,0,0,0-.74-.56,2.683,2.683,0,0,0-1.73-.12,2.4,2.4,0,0,0-.59.26,2.276,2.276,0,0,0-.48.39,2.011,2.011,0,0,0-.33.47h-.04c0-.13,0-.3-.01-.5s-.02-.38-.04-.54h-1.19c.02.21.03.44.04.71s.01.49.01.66v4.98h1.26v-3.37a2.339,2.339,0,0,1,.47-1.52,1.53,1.53,0,0,1,1.22-.57,1.4,1.4,0,0,1,.72.16,1.21,1.21,0,0,1,.44.43,1.691,1.691,0,0,1,.22.62,4.348,4.348,0,0,1,.06.74v3.52h1.26v-3.94a3.552,3.552,0,0,0-.14-1A1.926,1.926,0,0,0,333.16,278.79Z" fill="#103557"/>
        <path id="Path_5201" data-name="Path 5201" d="M338.18,283.2h-.02l-1.86-5h-1.4l2.59,6.35h1.36l2.54-6.35h-1.33Z" fill="#103557"/>
        <path id="Path_5202" data-name="Path 5202" d="M343.25,275.1a.8.8,0,0,0-.58.23.809.809,0,0,0,0,1.15.776.776,0,0,0,.58.23.84.84,0,0,0,.59-.23.762.762,0,0,0,.25-.58.743.743,0,0,0-.25-.58A.9.9,0,0,0,343.25,275.1Z" fill="#103557"/>
        <rect id="Rectangle_2034" data-name="Rectangle 2034" width="1.26" height="6.34" transform="translate(342.63 278.2)" fill="#103557"/>
        <path id="Path_5203" data-name="Path 5203" d="M348.09,278.37a2.264,2.264,0,0,0-.78.9h-.04c0-.13,0-.31-.01-.52s-.02-.39-.04-.56h-1.19c.02.21.03.44.04.71s.01.49.01.66v4.98h1.26v-3.33a2.81,2.81,0,0,1,.11-.77,1.816,1.816,0,0,1,.33-.65,1.55,1.55,0,0,1,.56-.45,1.769,1.769,0,0,1,.79-.17,2.194,2.194,0,0,1,.58.07l.05-1.16a1.791,1.791,0,0,0-.5-.05A2.057,2.057,0,0,0,348.09,278.37Z" fill="#103557"/>
        <path id="Path_5204" data-name="Path 5204" d="M356.12,278.97a3.491,3.491,0,0,0-1.09-.69,3.77,3.77,0,0,0-2.7,0,3.175,3.175,0,0,0-1.08.69,3.269,3.269,0,0,0-.72,1.05,3.456,3.456,0,0,0-.26,1.35,3.492,3.492,0,0,0,.26,1.35,3.115,3.115,0,0,0,.72,1.06,3.2,3.2,0,0,0,1.08.7,3.765,3.765,0,0,0,1.35.25,3.561,3.561,0,0,0,1.35-.25,3.344,3.344,0,0,0,1.09-.7,3.115,3.115,0,0,0,.72-1.06,3.635,3.635,0,0,0,0-2.7A2.981,2.981,0,0,0,356.12,278.97Zm-.46,3.27a2.1,2.1,0,0,1-1.07,1.24,2.174,2.174,0,0,1-.91.19,2.059,2.059,0,0,1-.91-.19,1.754,1.754,0,0,1-.66-.51,2.187,2.187,0,0,1-.41-.73,2.782,2.782,0,0,1-.14-.87,2.829,2.829,0,0,1,.14-.87,2.093,2.093,0,0,1,.41-.73,1.926,1.926,0,0,1,.66-.5,2.174,2.174,0,0,1,.91-.19,2.059,2.059,0,0,1,.91.19,1.836,1.836,0,0,1,.66.5,2.093,2.093,0,0,1,.41.73,2.773,2.773,0,0,1,0,1.74Z" fill="#103557"/>
        <path id="Path_5205" data-name="Path 5205" d="M363.93,278.79a2.2,2.2,0,0,0-.74-.56,2.683,2.683,0,0,0-1.73-.12,2.4,2.4,0,0,0-.59.26,2.276,2.276,0,0,0-.48.39,2.011,2.011,0,0,0-.33.47h-.04c0-.13,0-.3-.01-.5s-.02-.38-.04-.54h-1.19c.02.21.03.44.04.71s.01.49.01.66v4.98h1.26v-3.37a2.339,2.339,0,0,1,.47-1.52,1.53,1.53,0,0,1,1.22-.57,1.4,1.4,0,0,1,.72.16,1.21,1.21,0,0,1,.44.43,1.691,1.691,0,0,1,.22.62,4.348,4.348,0,0,1,.06.74v3.52h1.26v-3.94a3.552,3.552,0,0,0-.14-1A1.819,1.819,0,0,0,363.93,278.79Z" fill="#103557"/>
        <path id="Path_5206" data-name="Path 5206" d="M375.81,278.79a2.2,2.2,0,0,0-.74-.56,2.443,2.443,0,0,0-1.06-.21,2.523,2.523,0,0,0-1.26.33,2.332,2.332,0,0,0-.9.94,2.06,2.06,0,0,0-.81-.98,2.247,2.247,0,0,0-1.16-.29,2.221,2.221,0,0,0-2.02,1.22h-.04c0-.13,0-.3-.01-.5s-.02-.38-.04-.54h-1.19c.02.21.03.44.04.71s.01.49.01.66v4.98h1.26v-3.37a2.336,2.336,0,0,1,.46-1.52,1.43,1.43,0,0,1,1.16-.57,1.336,1.336,0,0,1,.63.13,1.1,1.1,0,0,1,.42.35,1.423,1.423,0,0,1,.23.53,3.551,3.551,0,0,1,.07.68v3.77h1.26v-3.43a3.06,3.06,0,0,1,.09-.74,2,2,0,0,1,.28-.65,1.6,1.6,0,0,1,.5-.47,1.449,1.449,0,0,1,.74-.18,1.194,1.194,0,0,1,1.11.59,1.9,1.9,0,0,1,.23.62,4.323,4.323,0,0,1,.07.74v3.52h1.26v-3.94a3.552,3.552,0,0,0-.14-1A2.829,2.829,0,0,0,375.81,278.79Z" fill="#103557"/>
        <path id="Path_5207" data-name="Path 5207" d="M383.61,278.91a2.654,2.654,0,0,0-.97-.66,3.42,3.42,0,0,0-1.27-.23,3.309,3.309,0,0,0-1.3.25,3.248,3.248,0,0,0-1.05.69,2.951,2.951,0,0,0-.69,1.06,3.851,3.851,0,0,0,0,2.73,3.07,3.07,0,0,0,.7,1.05,3.218,3.218,0,0,0,1.06.68,3.838,3.838,0,0,0,2.87-.08,3.132,3.132,0,0,0,1.2-.99l-.88-.71a2.119,2.119,0,0,1-.74.68,2.081,2.081,0,0,1-1.11.28,2.108,2.108,0,0,1-1.43-.56,1.924,1.924,0,0,1-.63-1.36h5.05a1.476,1.476,0,0,0,.01-.21v-.21a4.15,4.15,0,0,0-.21-1.37A2.92,2.92,0,0,0,383.61,278.91Zm-4.23,1.91a1.9,1.9,0,0,1,.62-1.27,1.848,1.848,0,0,1,.62-.38,2.136,2.136,0,0,1,.76-.14,2.033,2.033,0,0,1,.77.14,1.547,1.547,0,0,1,.55.38,1.474,1.474,0,0,1,.33.57,2.288,2.288,0,0,1,.13.7Z" fill="#103557"/>
        <path id="Path_5208" data-name="Path 5208" d="M391.27,278.79a2.2,2.2,0,0,0-.74-.56,2.683,2.683,0,0,0-1.73-.12,2.4,2.4,0,0,0-.59.26,2.276,2.276,0,0,0-.48.39,2.011,2.011,0,0,0-.33.47h-.04c0-.13,0-.3-.01-.5s-.02-.38-.04-.54h-1.19c.02.21.03.44.04.71s.01.49.01.66v4.98h1.26v-3.37a2.339,2.339,0,0,1,.47-1.52,1.53,1.53,0,0,1,1.22-.57,1.4,1.4,0,0,1,.72.16,1.21,1.21,0,0,1,.44.43,1.691,1.691,0,0,1,.22.62,4.348,4.348,0,0,1,.06.74v3.52h1.26v-3.94a3.552,3.552,0,0,0-.14-1A2.047,2.047,0,0,0,391.27,278.79Z" fill="#103557"/>
        <path id="Path_5209" data-name="Path 5209" d="M395.39,276.38h-1.24v1.82h-1.22v1.03h1.22v3.44a2.069,2.069,0,0,0,.48,1.49,1.813,1.813,0,0,0,1.37.5,3.454,3.454,0,0,0,.57-.05,2.436,2.436,0,0,0,.5-.13l-.04-1.03a1.374,1.374,0,0,1-.36.11,1.67,1.67,0,0,1-.37.04.835.835,0,0,1-.68-.25,1.262,1.262,0,0,1-.21-.82v-3.3h1.69V278.2h-1.69v-1.82Z" fill="#103557"/>
        <path id="Path_5210" data-name="Path 5210" d="M410.07,282.62h-.03l-2.2-7.55h-1.46l-2.22,7.55h-.03l-2.09-7.55h-1.43l2.78,9.48h1.38l2.3-7.62h.03l2.3,7.62h1.38l2.78-9.48h-1.4Z" fill="#103557"/>
        <path id="Path_5211" data-name="Path 5211" d="M419.45,283.29v-2.77a2.878,2.878,0,0,0-.16-.98,2.125,2.125,0,0,0-1.3-1.32,3.245,3.245,0,0,0-1.18-.19,4.286,4.286,0,0,0-1.45.25,3.273,3.273,0,0,0-1.14.7l.67.8a2.6,2.6,0,0,1,.8-.53,2.47,2.47,0,0,1,1.01-.21,1.779,1.779,0,0,1,1.14.34,1.256,1.256,0,0,1,.43,1.05v.17c-.54,0-1.07.02-1.59.07a5.409,5.409,0,0,0-1.42.29,2.508,2.508,0,0,0-1.02.64,1.609,1.609,0,0,0-.39,1.14,1.742,1.742,0,0,0,.22.92,1.8,1.8,0,0,0,.56.6,2.359,2.359,0,0,0,.74.33,3.092,3.092,0,0,0,.78.1,2.592,2.592,0,0,0,1.25-.28,2.553,2.553,0,0,0,.88-.79h.04a4.044,4.044,0,0,0,.11.91h1.14a2.87,2.87,0,0,1-.07-.58A3.672,3.672,0,0,1,419.45,283.29Zm-1.2-1.43a1.889,1.889,0,0,1-.48,1.33,1.748,1.748,0,0,1-1.36.53,2.416,2.416,0,0,1-.47-.05,1.281,1.281,0,0,1-.42-.17.89.89,0,0,1-.3-.31.862.862,0,0,1-.11-.47.809.809,0,0,1,.27-.64,1.7,1.7,0,0,1,.68-.36,4.776,4.776,0,0,1,.91-.16c.33-.03.66-.04.97-.04h.31Z" fill="#103557"/>
        <path id="Path_5212" data-name="Path 5212" d="M422.84,276.38H421.6v1.82h-1.22v1.03h1.22v3.44a2.069,2.069,0,0,0,.48,1.49,1.813,1.813,0,0,0,1.37.5,3.454,3.454,0,0,0,.57-.05,2.436,2.436,0,0,0,.5-.13l-.04-1.03a1.374,1.374,0,0,1-.36.11,1.67,1.67,0,0,1-.37.04.835.835,0,0,1-.68-.25,1.262,1.262,0,0,1-.21-.82v-3.3h1.69V278.2h-1.69v-1.82Z" fill="#103557"/>
        <path id="Path_5213" data-name="Path 5213" d="M430.93,278.91a2.654,2.654,0,0,0-.97-.66,3.42,3.42,0,0,0-1.27-.23,3.309,3.309,0,0,0-1.3.25,3.248,3.248,0,0,0-1.05.69,2.951,2.951,0,0,0-.69,1.06,3.851,3.851,0,0,0,0,2.73,3.07,3.07,0,0,0,.7,1.05,3.218,3.218,0,0,0,1.06.68,3.838,3.838,0,0,0,2.87-.08,3.132,3.132,0,0,0,1.2-.99l-.88-.71a2.119,2.119,0,0,1-.74.68,2.081,2.081,0,0,1-1.11.28,2.108,2.108,0,0,1-1.43-.56,1.924,1.924,0,0,1-.63-1.36h5.05a1.476,1.476,0,0,0,.01-.21v-.21a4.15,4.15,0,0,0-.21-1.37A3.074,3.074,0,0,0,430.93,278.91Zm-4.24,1.91a1.9,1.9,0,0,1,.62-1.27,1.848,1.848,0,0,1,.62-.38,2.136,2.136,0,0,1,.76-.14,2.033,2.033,0,0,1,.77.14,1.547,1.547,0,0,1,.55.38,1.474,1.474,0,0,1,.33.57,2.288,2.288,0,0,1,.13.7Z" fill="#103557"/>
        <path id="Path_5214" data-name="Path 5214" d="M435.51,278.37a2.264,2.264,0,0,0-.78.9h-.04c0-.13,0-.31-.01-.52s-.02-.39-.04-.56h-1.19c.02.21.03.44.04.71s.01.49.01.66v4.98h1.26v-3.33a2.81,2.81,0,0,1,.11-.77,1.816,1.816,0,0,1,.33-.65,1.55,1.55,0,0,1,.56-.45,1.769,1.769,0,0,1,.79-.17,2.194,2.194,0,0,1,.58.07l.05-1.16a1.791,1.791,0,0,0-.5-.05A2.035,2.035,0,0,0,435.51,278.37Z" fill="#103557"/>
        <path id="Path_5215" data-name="Path 5215" d="M449.78,279.49h-1.47l-1.19,2.01-1.89-1.94a5.811,5.811,0,0,0,.77-.43,3.156,3.156,0,0,0,.65-.55,2.368,2.368,0,0,0,.45-.68,2.066,2.066,0,0,0,.17-.84,2.192,2.192,0,0,0-.2-.96,1.967,1.967,0,0,0-.54-.7,2.1,2.1,0,0,0-.78-.42,3.189,3.189,0,0,0-.94-.14,3.307,3.307,0,0,0-.95.14,2.429,2.429,0,0,0-.81.43,2,2,0,0,0-.56.72,2.263,2.263,0,0,0-.21,1,2.234,2.234,0,0,0,.32,1.17,5.525,5.525,0,0,0,.78,1,6.854,6.854,0,0,0-.79.44,3.583,3.583,0,0,0-.69.59,2.721,2.721,0,0,0-.48.76,2.417,2.417,0,0,0-.18.96,2.474,2.474,0,0,0,.92,2,2.969,2.969,0,0,0,.98.52,3.873,3.873,0,0,0,1.18.17,3.409,3.409,0,0,0,1.67-.37,4.22,4.22,0,0,0,1.21-1.04l1.18,1.25h1.75l-2.17-2.24Zm-5.85-3.25a1.26,1.26,0,0,1,.91-.35,1.222,1.222,0,0,1,1.08,1.77,1.745,1.745,0,0,1-.35.47,2.522,2.522,0,0,1-.49.37,5.108,5.108,0,0,1-.57.29q-.165-.15-.33-.33a2.855,2.855,0,0,1-.52-.86,1.277,1.277,0,0,1,.27-1.36Zm1.57,7.12a2.094,2.094,0,0,1-1.15.3,2.175,2.175,0,0,1-.66-.11,2.023,2.023,0,0,1-.57-.33,1.591,1.591,0,0,1-.54-1.2,1.643,1.643,0,0,1,.41-1.16,3.417,3.417,0,0,1,1.11-.74l2.25,2.36A2.872,2.872,0,0,1,445.5,283.36Z" fill="#103557"/>
        <path id="Path_5216" data-name="Path 5216" d="M457.56,275.07l-4.11,9.48h1.47l.95-2.33h4.5l.96,2.33h1.5l-4.07-9.48Zm-1.22,5.99,1.78-4.44,1.77,4.44Z" fill="#103557"/>
        <path id="Path_5217" data-name="Path 5217" d="M469.07,279.22h-.03a2.3,2.3,0,0,0-.98-.9,2.981,2.981,0,0,0-1.31-.29,3.258,3.258,0,0,0-1.31.26,2.89,2.89,0,0,0-1,.71,3.122,3.122,0,0,0-.64,1.05,3.632,3.632,0,0,0-.23,1.28,3.59,3.59,0,0,0,.23,1.28,3.243,3.243,0,0,0,.64,1.04,3.045,3.045,0,0,0,1.01.7,3.339,3.339,0,0,0,1.32.25,2.921,2.921,0,0,0,1.28-.28,2.234,2.234,0,0,0,.95-.82h.03v.82a3.8,3.8,0,0,1-.11.92,1.982,1.982,0,0,1-.37.74,1.7,1.7,0,0,1-.69.49,2.762,2.762,0,0,1-1.06.18,3.049,3.049,0,0,1-1.28-.28,3.192,3.192,0,0,1-1.04-.75l-.8.98a4.134,4.134,0,0,0,1.44.85,4.91,4.91,0,0,0,1.67.3,4.256,4.256,0,0,0,1.66-.29,2.842,2.842,0,0,0,1.08-.78,2.945,2.945,0,0,0,.59-1.12,4.851,4.851,0,0,0,.17-1.33v-6.02h-1.22v1.01Zm-.1,2.97a2.072,2.072,0,0,1-.44.71,2.1,2.1,0,0,1-1.58.65,1.972,1.972,0,0,1-.89-.19,2.033,2.033,0,0,1-.66-.49,2.3,2.3,0,0,1-.42-.71,2.643,2.643,0,0,1-.14-.84,2.719,2.719,0,0,1,.14-.86,1.886,1.886,0,0,1,.42-.71,2.007,2.007,0,0,1,.66-.48,2.266,2.266,0,0,1,1.77,0,2.076,2.076,0,0,1,.68.49,2.172,2.172,0,0,1,.44.71,2.429,2.429,0,0,1,.15.86A2.121,2.121,0,0,1,468.97,282.19Z" fill="#103557"/>
        <path id="Path_5218" data-name="Path 5218" d="M474.46,278.37a2.264,2.264,0,0,0-.78.9h-.04c0-.13,0-.31-.01-.52s-.02-.39-.04-.56H472.4c.02.21.03.44.04.71s.01.49.01.66v4.98h1.26v-3.33a2.81,2.81,0,0,1,.11-.77,1.816,1.816,0,0,1,.33-.65,1.55,1.55,0,0,1,.56-.45,1.769,1.769,0,0,1,.79-.17,2.194,2.194,0,0,1,.58.07l.05-1.16a1.791,1.791,0,0,0-.5-.05A2.035,2.035,0,0,0,474.46,278.37Z" fill="#103557"/>
        <rect id="Rectangle_2035" data-name="Rectangle 2035" width="1.26" height="6.34" transform="translate(477.3 278.2)" fill="#103557"/>
        <path id="Path_5219" data-name="Path 5219" d="M477.92,275.1a.816.816,0,0,0-.58.23.809.809,0,0,0,0,1.15.776.776,0,0,0,.58.23.84.84,0,0,0,.59-.23.762.762,0,0,0,.25-.58.743.743,0,0,0-.25-.58A.878.878,0,0,0,477.92,275.1Z" fill="#103557"/>
        <path id="Path_5220" data-name="Path 5220" d="M484.63,283.48a1.958,1.958,0,0,1-.88.19,1.9,1.9,0,0,1-.88-.19,1.926,1.926,0,0,1-.66-.5,2.265,2.265,0,0,1-.41-.73,2.773,2.773,0,0,1,0-1.74,2.093,2.093,0,0,1,.41-.73,1.987,1.987,0,0,1,.65-.5,1.9,1.9,0,0,1,.88-.19,1.852,1.852,0,0,1,.86.21,1.476,1.476,0,0,1,.6.52l.91-.74a2.461,2.461,0,0,0-1.05-.78,3.512,3.512,0,0,0-1.33-.27,3.76,3.76,0,0,0-1.35.24,3.356,3.356,0,0,0-1.08.68,3.136,3.136,0,0,0-.71,1.06,3.808,3.808,0,0,0,.01,2.74,2.981,2.981,0,0,0,.72,1.05,3.31,3.31,0,0,0,1.08.68,3.775,3.775,0,0,0,1.36.24,3.435,3.435,0,0,0,1.36-.26,2.648,2.648,0,0,0,1-.73l-.84-.76A1.941,1.941,0,0,1,484.63,283.48Z" fill="#103557"/>
        <path id="Path_5221" data-name="Path 5221" d="M492.98,283.18V278.2h-1.26v3.37a2.339,2.339,0,0,1-.47,1.52,1.509,1.509,0,0,1-1.23.57,1.4,1.4,0,0,1-.72-.16,1.21,1.21,0,0,1-.44-.43,1.759,1.759,0,0,1-.22-.62,4.434,4.434,0,0,1-.06-.74V278.2h-1.26v3.94a3.552,3.552,0,0,0,.14,1,2.3,2.3,0,0,0,.43.82,1.991,1.991,0,0,0,.74.56,2.637,2.637,0,0,0,1.06.2,2.366,2.366,0,0,0,1.26-.35,2.078,2.078,0,0,0,.81-.86h.03c0,.13,0,.3.01.5s.02.38.04.54h1.19c-.02-.21-.03-.44-.04-.71S492.98,283.35,492.98,283.18Z" fill="#103557"/>
        <rect id="Rectangle_2036" data-name="Rectangle 2036" width="1.26" height="10.12" transform="translate(495.18 274.43)" fill="#103557"/>
        <path id="Path_5222" data-name="Path 5222" d="M500.06,276.38h-1.24v1.82H497.6v1.03h1.22v3.44a2.069,2.069,0,0,0,.48,1.49,1.813,1.813,0,0,0,1.37.5,3.454,3.454,0,0,0,.57-.05,2.436,2.436,0,0,0,.5-.13l-.04-1.03a1.374,1.374,0,0,1-.36.11,1.67,1.67,0,0,1-.37.04.835.835,0,0,1-.68-.25,1.262,1.262,0,0,1-.21-.82v-3.3h1.69V278.2h-1.69v-1.82Z" fill="#103557"/>
        <path id="Path_5223" data-name="Path 5223" d="M508.65,283.18V278.2h-1.26v3.37a2.339,2.339,0,0,1-.47,1.52,1.509,1.509,0,0,1-1.23.57,1.4,1.4,0,0,1-.72-.16,1.21,1.21,0,0,1-.44-.43,1.759,1.759,0,0,1-.22-.62,4.434,4.434,0,0,1-.06-.74V278.2h-1.26v3.94a3.552,3.552,0,0,0,.14,1,2.3,2.3,0,0,0,.43.82,1.991,1.991,0,0,0,.74.56,2.637,2.637,0,0,0,1.06.2,2.366,2.366,0,0,0,1.26-.35,2.078,2.078,0,0,0,.81-.86h.03c0,.13,0,.3.01.5s.02.38.04.54h1.19c-.02-.21-.03-.44-.04-.71S508.65,283.35,508.65,283.18Z" fill="#103557"/>
        <path id="Path_5224" data-name="Path 5224" d="M512.84,278.37a2.264,2.264,0,0,0-.78.9h-.04c0-.13,0-.31-.01-.52s-.02-.39-.04-.56h-1.19c.02.21.03.44.04.71s.01.49.01.66v4.98h1.26v-3.33a2.809,2.809,0,0,1,.11-.77,1.816,1.816,0,0,1,.33-.65,1.551,1.551,0,0,1,.56-.45,1.769,1.769,0,0,1,.79-.17,2.195,2.195,0,0,1,.58.07l.05-1.16a1.791,1.791,0,0,0-.5-.05A2.057,2.057,0,0,0,512.84,278.37Z" fill="#103557"/>
        <path id="Path_5225" data-name="Path 5225" d="M521.15,279.95a2.98,2.98,0,0,0-.61-1.04,2.655,2.655,0,0,0-.97-.66,3.42,3.42,0,0,0-1.27-.23,3.317,3.317,0,0,0-2.35.94,2.951,2.951,0,0,0-.69,1.06,3.851,3.851,0,0,0,0,2.73,3.07,3.07,0,0,0,.7,1.05,3.218,3.218,0,0,0,1.06.68,3.838,3.838,0,0,0,2.87-.08,3.132,3.132,0,0,0,1.2-.99l-.88-.71a2.119,2.119,0,0,1-.74.68,2.081,2.081,0,0,1-1.11.28,2.109,2.109,0,0,1-1.43-.56,1.924,1.924,0,0,1-.63-1.36h5.05a1.476,1.476,0,0,0,.01-.21v-.21A4.239,4.239,0,0,0,521.15,279.95Zm-4.85.87a1.9,1.9,0,0,1,.62-1.27,1.848,1.848,0,0,1,.62-.38,2.136,2.136,0,0,1,.76-.14,2.034,2.034,0,0,1,.77.14,1.547,1.547,0,0,1,.55.38,1.474,1.474,0,0,1,.33.57,2.287,2.287,0,0,1,.13.7Z" fill="#103557"/>
        <path id="Path_5226" data-name="Path 5226" d="M435.32,246.4H433.2v-.69a.979.979,0,0,1,.43-.94,2.2,2.2,0,0,1,1.35-.37v-2.02c-.03,0-.06.01-.08.01-.46.05-.98.11-1.05.12a3.078,3.078,0,0,0-1.94,1.07,2.878,2.878,0,0,0-.83,2.15v2.65h4.23V246.4Z" fill="#103557"/>
        <path id="Path_5227" data-name="Path 5227" d="M423.96,248.65a1.767,1.767,0,0,0,1.32-.55,1.847,1.847,0,0,0,.53-1.3,1.826,1.826,0,0,0-.53-1.32,1.868,1.868,0,0,0-2.62.01,1.715,1.715,0,0,0-.55,1.31,1.77,1.77,0,0,0,.55,1.3A1.738,1.738,0,0,0,423.96,248.65Z" fill="#103557"/>
        <path id="Path_5228" data-name="Path 5228" d="M419.22,248.65a1.711,1.711,0,0,0,1.28-.55,1.83,1.83,0,0,0,.53-1.3,1.81,1.81,0,0,0-.53-1.32,1.844,1.844,0,0,0-2.6,0,1.771,1.771,0,0,0-.53,1.32,1.83,1.83,0,0,0,.53,1.3A1.767,1.767,0,0,0,419.22,248.65Z" fill="#103557"/>
        <path id="Path_5229" data-name="Path 5229" d="M483.49,248.65a1.782,1.782,0,0,0,1.32-.55,1.847,1.847,0,0,0,.53-1.3,1.787,1.787,0,0,0-.53-1.31,1.868,1.868,0,0,0-2.62,0,1.745,1.745,0,0,0-.55,1.31,1.793,1.793,0,0,0,.55,1.3A1.754,1.754,0,0,0,483.49,248.65Z" fill="#103557"/>
        <path id="Path_5230" data-name="Path 5230" d="M478.75,248.65a1.727,1.727,0,0,0,1.28-.55,1.806,1.806,0,0,0,.53-1.3,1.787,1.787,0,0,0-.53-1.31,1.853,1.853,0,0,0-2.6,0,1.771,1.771,0,0,0-.53,1.32,1.8,1.8,0,0,0,.54,1.3A1.757,1.757,0,0,0,478.75,248.65Z" fill="#103557"/>
        <path id="Path_5231" data-name="Path 5231" d="M490.47,265.22a5.452,5.452,0,0,0,1.82-3.55l.06-11.06-3.09-.01c0,7.14-.02,10.52-.03,10.69a2.424,2.424,0,0,1-.78,1.6,2.838,2.838,0,0,1-1.77.61v3.11c.32-.03.73-.07.75-.07A5.726,5.726,0,0,0,490.47,265.22Z" fill="#103557"/>
        <path id="Path_5232" data-name="Path 5232" d="M504.96,265.22a5.452,5.452,0,0,0,1.82-3.55l.06-11.06-3.09-.01c0,7.14-.02,10.52-.03,10.69a2.424,2.424,0,0,1-.78,1.6,2.838,2.838,0,0,1-1.77.61v3.11c.32-.03.73-.07.75-.07A5.692,5.692,0,0,0,504.96,265.22Z" fill="#103557"/>
        <path id="Path_5233" data-name="Path 5233" d="M476.62,261.23a5.736,5.736,0,0,0,5.81,0,5.9,5.9,0,0,0,2.12-2.12,5.58,5.58,0,0,0,.79-2.91c0-1.55-.02-4.36-.06-5.6l-5.95-.05a5.643,5.643,0,0,0-2.86.74,5.341,5.341,0,0,0-2,2.03,5.824,5.824,0,0,0-.72,2.87,5.84,5.84,0,0,0,2.87,5.04Zm.91-6.88a2.345,2.345,0,0,1,1.79-.73l2.92.04v2.55a2.6,2.6,0,0,1-.79,1.93,2.665,2.665,0,0,1-3.82,0,2.8,2.8,0,0,1-.1-3.79Z" fill="#103557"/>
        <path id="Path_5234" data-name="Path 5234" d="M499.25,261.78V255.5c.02-1.67.03-6.58.03-10.3l-3.09-.02c0,3.6-.01,8.83-.03,10.32v6.28h3.09Z" fill="#103557"/>
        <path id="Path_5235" data-name="Path 5235" d="M505.16,248.41a1.711,1.711,0,0,0,1.28-.55,1.783,1.783,0,0,0,.54-1.3,1.83,1.83,0,0,0-3.13-1.3,1.835,1.835,0,0,0,0,2.6A1.73,1.73,0,0,0,505.16,248.41Z" fill="#103557"/>
        <path id="Path_5236" data-name="Path 5236" d="M450.27,265a1.773,1.773,0,0,0-.55,1.32,1.879,1.879,0,0,0,1.85,1.85,1.73,1.73,0,0,0,1.31-.55,1.83,1.83,0,0,0,.53-1.3,1.81,1.81,0,0,0-.53-1.32A1.865,1.865,0,0,0,450.27,265Z" fill="#103557"/>
        <path id="Path_5237" data-name="Path 5237" d="M436.92,261.76l2.14-.01a7.074,7.074,0,0,0,1.81-.2,4.739,4.739,0,0,0,1.61-.88l.12.04a4.1,4.1,0,0,0,1.61.88,7.977,7.977,0,0,0,1.79.17l2.04-.01a7.074,7.074,0,0,0,1.81-.2,4.921,4.921,0,0,0,1.61-.88h.04l.08.04a4.1,4.1,0,0,0,1.61.88,7.977,7.977,0,0,0,1.79.17h5.22l.03-16.55v-.1h-3.06l-.03,13.56h-1.82a2.764,2.764,0,0,1-1.8-.56,2.721,2.721,0,0,1-.47-1.83l.02-5.64v-.11h-3.12l-.02,5.95a3.326,3.326,0,0,1-.23,1.42,1.258,1.258,0,0,1-.88.62,14.233,14.233,0,0,1-2.18.14l-.61-.02a2.349,2.349,0,0,1-1.48-.54,2.721,2.721,0,0,1-.47-1.83l.02-5.75h-3.13l-.02,5.95a3.326,3.326,0,0,1-.23,1.42,1.2,1.2,0,0,1-.88.62,14.9,14.9,0,0,1-2.26.14c-.15,0-.52-.01-.61-.02a2.365,2.365,0,0,1-1.5-.54,2.708,2.708,0,0,1-.47-1.82l.02-5.64v-.11h-3.13l-.02,5.95a3.326,3.326,0,0,1-.23,1.42,1.23,1.23,0,0,1-.88.62c-.34.08-2.29.13-3.23.13-1.13-.01-1.35-.41-1.43-.54a4.109,4.109,0,0,1-.28-1.84c0-1.58-.02-2.99-.07-4.19l-.03-1.48-5.92-.04a5.643,5.643,0,0,0-2.86.74,5.272,5.272,0,0,0-2,2.03,5.824,5.824,0,0,0-.72,2.87,5.757,5.757,0,0,0,.77,2.91,5.846,5.846,0,0,0,2.1,2.12,5.623,5.623,0,0,0,2.91.79,5.725,5.725,0,0,0,2.13-.41,6.158,6.158,0,0,0,1.86-1.18l.13.06c.31.31.56.53.74.68a2.829,2.829,0,0,0,.9.36,9.774,9.774,0,0,0,1.75.23h2.47a7.074,7.074,0,0,0,1.81-.2,4.921,4.921,0,0,0,1.61-.88l.12.04a4.1,4.1,0,0,0,1.61.88A8.051,8.051,0,0,0,436.92,261.76Zm-14.21-5.55a2.618,2.618,0,0,1-.79,1.93,2.674,2.674,0,0,1-3.82,0,2.774,2.774,0,0,1-.11-3.78,2.345,2.345,0,0,1,1.79-.73l2.93.04Z" fill="#103557"/>
        <path id="Path_5238" data-name="Path 5238" d="M444.31,268.17a1.751,1.751,0,0,0,1.32-.55,1.83,1.83,0,0,0,.53-1.3,1.794,1.794,0,0,0-.53-1.32,1.887,1.887,0,0,0-2.62,0,1.835,1.835,0,0,0,0,2.62A1.754,1.754,0,0,0,444.31,268.17Z" fill="#103557"/>
        <path id="Path_5239" data-name="Path 5239" d="M438.25,265a1.81,1.81,0,0,0-.53,1.32,1.773,1.773,0,0,0,.53,1.3,1.745,1.745,0,0,0,1.31.55,1.711,1.711,0,0,0,1.28-.55,1.789,1.789,0,0,0,.53-1.3,1.825,1.825,0,0,0-3.12-1.32Z" fill="#103557"/>
        <path id="Path_5240" data-name="Path 5240" d="M312.4,261.73v-6.29c.02-1.67.03-6.58.03-10.3l-3.09-.02c0,3.59-.01,8.82-.03,10.32v6.28l3.09.01Z" fill="#103557"/>
        <path id="Path_5241" data-name="Path 5241" d="M261.29,248.59a1.767,1.767,0,0,0,1.32-.55,1.847,1.847,0,0,0,.53-1.3,1.826,1.826,0,0,0-.53-1.32,1.877,1.877,0,0,0-2.62,0,1.766,1.766,0,0,0-.55,1.31,1.793,1.793,0,0,0,.55,1.3A1.727,1.727,0,0,0,261.29,248.59Z" fill="#103557"/>
        <path id="Path_5242" data-name="Path 5242" d="M282.59,261.73v-6.29c.02-1.67.03-6.58.03-10.3l-3.09-.02c0,3.57-.01,8.79-.03,10.32v6.28l3.09.01Z" fill="#103557"/>
        <path id="Path_5243" data-name="Path 5243" d="M256.55,248.59a1.711,1.711,0,0,0,1.28-.55,1.846,1.846,0,1,0-2.6-2.62,1.794,1.794,0,0,0-.53,1.32,1.813,1.813,0,0,0,.53,1.3A1.782,1.782,0,0,0,256.55,248.59Z" fill="#103557"/>
        <path id="Path_5244" data-name="Path 5244" d="M271.77,261.69a4.572,4.572,0,0,0,.62.03l4.34-.03V258.6l-4.33.02a2.358,2.358,0,0,1-1.79-.72,2.594,2.594,0,0,1-.69-1.86,2.534,2.534,0,0,1,.43-1.47,2.682,2.682,0,0,1,3.04-1.14c.02.01.29.09.58.18l1.83-2.49c-.28-.14-.61-.27-.71-.32a5.855,5.855,0,0,0-5.34.23,5.925,5.925,0,0,0-2.12,2.1,5.64,5.64,0,0,0-.79,2.9,6.1,6.1,0,0,0,.46,2.37l.08.18h-2.46c-1.16,0-1.38-.4-1.46-.54a4.077,4.077,0,0,1-.29-1.84c0-1.58-.02-2.99-.07-4.19l-.03-1.48-5.92-.04a5.643,5.643,0,0,0-2.86.74,5.271,5.271,0,0,0-2,2.03,5.824,5.824,0,0,0-.72,2.87,5.73,5.73,0,0,0,.77,2.91,5.846,5.846,0,0,0,2.1,2.12,5.623,5.623,0,0,0,2.91.79,5.725,5.725,0,0,0,2.13-.41,6.283,6.283,0,0,0,1.86-1.18l.13.05a8.366,8.366,0,0,0,.74.67,2.5,2.5,0,0,0,.91.36,10.213,10.213,0,0,0,1.75.23h6.9Zm-11.72-5.54a2.6,2.6,0,0,1-.8,1.93,2.662,2.662,0,0,1-3.81,0,2.774,2.774,0,0,1-.11-3.78,2.345,2.345,0,0,1,1.79-.73l2.93.03Z" fill="#103557"/>
        <path id="Path_5245" data-name="Path 5245" d="M296.2,248.66a1.711,1.711,0,0,0,1.28-.55,1.838,1.838,0,1,0-2.6-2.6,1.847,1.847,0,0,0-.53,1.3,1.844,1.844,0,0,0,1.85,1.85Z" fill="#103557"/>
        <path id="Path_5246" data-name="Path 5246" d="M345.31,250.56l-5.93-.04a5.643,5.643,0,0,0-2.86.74,5.341,5.341,0,0,0-2,2.03,5.824,5.824,0,0,0-.72,2.87,5.807,5.807,0,0,0,2.87,5.03,5.718,5.718,0,0,0,5.8,0,5.9,5.9,0,0,0,2.12-2.12,5.649,5.649,0,0,0,.79-2.91c0-1.62-.02-3.01-.07-4.12Zm-3.01,5.6a2.634,2.634,0,0,1-.79,1.93,2.674,2.674,0,0,1-3.82,0,2.787,2.787,0,0,1-.1-3.78,2.36,2.36,0,0,1,1.79-.73l2.93.03v2.55Z" fill="#103557"/>
        <path id="Path_5247" data-name="Path 5247" d="M356.23,268.12a1.727,1.727,0,0,0,1.28-.55,1.789,1.789,0,0,0,.53-1.3,1.771,1.771,0,0,0-.53-1.32,1.844,1.844,0,0,0-2.6,0,1.794,1.794,0,0,0-.53,1.32,1.773,1.773,0,0,0,.53,1.3A1.751,1.751,0,0,0,356.23,268.12Z" fill="#103557"/>
        <path id="Path_5248" data-name="Path 5248" d="M383.11,245.05l-.03,13.56h-2.85a2.268,2.268,0,0,1-1.67-.66,3.265,3.265,0,0,1-.71-1.85,5.757,5.757,0,0,0-.77-2.91,5.643,5.643,0,0,0-2.1-2.1,5.828,5.828,0,0,0-7.93,2.1,5.623,5.623,0,0,0-.79,2.91l.03,2.52h-3.27l-.26-.02a2.4,2.4,0,0,1-1.56-.54,2.69,2.69,0,0,1-.47-1.82l.02-5.63v-.11h-3.13l-.02,5.95a3.326,3.326,0,0,1-.23,1.42,1.258,1.258,0,0,1-.88.62,8.76,8.76,0,0,1-1.81.14h-2.67l-.03-13.56h-3.06l.03,16.65h6.77a7.074,7.074,0,0,0,1.81-.2,4.707,4.707,0,0,0,1.61-.89l.12.04a4.1,4.1,0,0,0,1.61.88,7.915,7.915,0,0,0,1.79.17l9.61-.01a5.609,5.609,0,0,0,4.03-1.6l.13.06a5.306,5.306,0,0,0,3.9,1.54h5.81l.03-16.54v-.11h-3.06Zm-8.49,12.06a2.435,2.435,0,0,1-.52.82c-.03.03-.05.04-.08.07a2.342,2.342,0,0,1-.3.25,2.618,2.618,0,0,1-1.45.39h-2.91c0-.6-.01-1.99-.01-2.5v-.05h0a2.536,2.536,0,0,1,.14-.83,1.864,1.864,0,0,1,.07-.22,2.941,2.941,0,0,1,.25-.46,2.826,2.826,0,0,1,1.23-1.01c.05-.02.11-.04.17-.06a1.055,1.055,0,0,1,.19-.05l.14-.03a2.75,2.75,0,0,1,1.07,0,2.07,2.07,0,0,1,.5.15,2.654,2.654,0,0,1,.88.6,2.869,2.869,0,0,1,.6.88,2.644,2.644,0,0,1,.12.4,2.878,2.878,0,0,1-.09,1.65Z" fill="#103557"/>
        <path id="Path_5249" data-name="Path 5249" d="M398.39,264.06v3.12a9.59,9.59,0,0,0,9.5-8.37c0-.04.06-1.22.06-1.22V256.1a5.743,5.743,0,0,0-2.87-5,5.828,5.828,0,0,0-7.93,2.1,5.64,5.64,0,0,0-.79,2.9,5.9,5.9,0,0,0,.72,2.91,5.272,5.272,0,0,0,2,2.03,5.643,5.643,0,0,0,2.86.74c.52,0,.96,0,1.34-.01A6.426,6.426,0,0,1,398.39,264.06Zm3.6-5.37h-.05a2.658,2.658,0,0,1-1-.18,2.135,2.135,0,0,1-.42-.23,2.236,2.236,0,0,1-.37-.32,2.538,2.538,0,0,1-.65-1.32,3.117,3.117,0,0,1-.04-.54,2.587,2.587,0,0,1,.2-1.05,2.52,2.52,0,0,1,.6-.87,2.6,2.6,0,0,1,1.93-.8,2.533,2.533,0,0,1,1.89.8,2.654,2.654,0,0,1,.6.88,2.752,2.752,0,0,1,.2,1.04v2.59Z" fill="#103557"/>
        <path id="Path_5250" data-name="Path 5250" d="M317.71,264.06v3.12a9.59,9.59,0,0,0,9.5-8.37c.01-.04.06-1.22.06-1.22V256.1a5.743,5.743,0,0,0-2.87-5,5.828,5.828,0,0,0-7.93,2.1,5.64,5.64,0,0,0-.79,2.9,5.9,5.9,0,0,0,.72,2.91,5.272,5.272,0,0,0,2,2.03,5.643,5.643,0,0,0,2.86.74c.52,0,.96,0,1.34-.01A6.426,6.426,0,0,1,317.71,264.06Zm3.54-5.37a2.358,2.358,0,0,1-1.79-.72,2.743,2.743,0,0,1,2.03-4.58,2.533,2.533,0,0,1,1.89.8,2.627,2.627,0,0,1,.79,1.92v2.58Z" fill="#103557"/>
        <path id="Path_5251" data-name="Path 5251" d="M511.79,264.06v3.12a9.59,9.59,0,0,0,9.5-8.37c0-.04.06-1.22.06-1.22V256.1a5.743,5.743,0,0,0-2.87-5,5.828,5.828,0,0,0-7.93,2.1,5.64,5.64,0,0,0-.79,2.9,5.9,5.9,0,0,0,.72,2.91,5.272,5.272,0,0,0,2,2.03,5.643,5.643,0,0,0,2.86.74c.52,0,.96,0,1.34-.01A6.426,6.426,0,0,1,511.79,264.06Zm3.68-5.37h-.13c-.05,0-.09-.01-.14-.01a1.644,1.644,0,0,1-.23-.02h-.01c-.01,0-.02-.01-.03-.01a2.312,2.312,0,0,1-1.38-.69,2.733,2.733,0,0,1,1.22-4.45.64.64,0,0,1,.07-.02c.1-.03.21-.05.31-.07a2.454,2.454,0,0,1,.27-.02c.05,0,.1-.01.15-.01h.04a2.533,2.533,0,0,1,1.89.8,2.627,2.627,0,0,1,.79,1.92v2.38l-.01.06-.01.06h0l-.02.01v.08C517.24,258.69,515.89,258.69,515.47,258.69Z" fill="#103557"/>
        <path id="Path_5252" data-name="Path 5252" d="M362.28,267.57a1.884,1.884,0,0,0,0-2.62,1.877,1.877,0,0,0-2.62,0,1.8,1.8,0,0,0-.54,1.32,1.879,1.879,0,0,0,1.85,1.85A1.745,1.745,0,0,0,362.28,267.57Z" fill="#103557"/>
        <path id="Path_5253" data-name="Path 5253" d="M390.1,255.5v6.28h3.09V255.5c.02-1.67.03-6.58.03-10.3l-3.09-.02C390.13,248.77,390.12,254.01,390.1,255.5Z" fill="#103557"/>
        <path id="Path_5254" data-name="Path 5254" d="M290.38,250.61l-3.09-.01c0,7.14-.02,10.52-.03,10.69a2.424,2.424,0,0,1-.78,1.6,2.838,2.838,0,0,1-1.77.61v3.11c.32-.03.73-.07.75-.07a5.534,5.534,0,0,0,3.04-1.31,5.452,5.452,0,0,0,1.82-3.55Z" fill="#103557"/>
        <path id="Path_5255" data-name="Path 5255" d="M296,265.22a5.424,5.424,0,0,0,1.82-3.52h7.49l.03-16.65h-3.06l-.03,13.56h-4.42l.04-7.99-3.09-.01c0,7.14-.02,10.52-.04,10.69a2.424,2.424,0,0,1-.78,1.6,2.838,2.838,0,0,1-1.77.61v3.11c.32-.03.73-.07.75-.07A5.845,5.845,0,0,0,296,265.22Z" fill="#103557"/>
        <path id="Path_5256" data-name="Path 5256" d="M467.44,261.78V255.5c.02-1.67.03-6.58.03-10.3l-3.09-.02c0,3.6-.01,8.83-.03,10.32v6.28h3.09Z" fill="#103557"/>
        <path id="Path_5257" data-name="Path 5257" d="M400.94,258.51a2.658,2.658,0,0,0,1,.18h0A2.658,2.658,0,0,1,400.94,258.51Z" fill="#103557"/>
        <path id="Path_5258" data-name="Path 5258" d="M399.5,256.64a2.431,2.431,0,0,0,.65,1.32,2.733,2.733,0,0,0,.37.32,2.236,2.236,0,0,1-.37-.32A2.365,2.365,0,0,1,399.5,256.64Z" fill="#103557"/>
      </g>
    </g>
  </g>
</svg>
