<svg xmlns="http://www.w3.org/2000/svg" width="18.389" height="18.514" viewBox="0 0 18.389 18.514">
  <defs>
    <style>
      .cls-1 {
        fill: #198044;
      }
    </style>
  </defs>
  <g id="noun_menu_1166841" transform="translate(-3.382 -13)">
    <path id="Path_1427" data-name="Path 1427" class="cls-1" d="M26.1,47.256H14.878A1.39,1.39,0,0,1,13.5,45.878h0A1.39,1.39,0,0,1,14.878,44.5H26.127A1.39,1.39,0,0,1,27.5,45.878h0A1.412,1.412,0,0,1,26.1,47.256Z" transform="translate(-10.118 -23.608)"/>
    <path id="Path_1428" data-name="Path 1428" class="cls-1" d="M21.241,78.656H14.878A1.39,1.39,0,0,1,13.5,77.278h0A1.39,1.39,0,0,1,14.878,75.9h6.363a1.39,1.39,0,0,1,1.378,1.378h0A1.374,1.374,0,0,1,21.241,78.656Z" transform="translate(-10.118 -47.142)"/>
    <path id="Path_1429" data-name="Path 1429" class="cls-1" d="M30.486,15.756H14.878A1.39,1.39,0,0,1,13.5,14.378h0A1.39,1.39,0,0,1,14.878,13H30.511a1.39,1.39,0,0,1,1.378,1.378h0A1.412,1.412,0,0,1,30.486,15.756Z" transform="translate(-10.118)"/>
  </g>
</svg>
