<svg xmlns="http://www.w3.org/2000/svg" width="20.632" height="20.629" viewBox="0 0 20.632 20.629">
  <defs>
    <style>
      .cls-1 {
        fill: #949494;
      }
    </style>
  </defs>
  <g id="noun_Night_Mode_3156994" data-name="noun_Night Mode_3156994" transform="translate(-8.578 -15.796)">
    <path id="Path_1437" data-name="Path 1437" class="cls-1" d="M12.89,5.222l-.038,0A8.946,8.946,0,0,0,5,14.087H5a8.948,8.948,0,0,0,8.94,8.94h0a8.946,8.946,0,0,0,8.866-7.854.5.5,0,0,0-.767-.475,6.285,6.285,0,0,1-8.712-8.708.5.5,0,0,0-.437-.77Zm-.846,1.191a7.223,7.223,0,0,0-.753,3.039h0a7.292,7.292,0,0,0,7.284,7.285h0a7.224,7.224,0,0,0,3.042-.754A7.925,7.925,0,0,1,5.993,14.089h0a7.918,7.918,0,0,1,6.051-7.675Z" transform="matrix(0.985, 0.174, -0.174, 0.985, 7.653, 9.786)"/>
  </g>
</svg>
