<svg xmlns="http://www.w3.org/2000/svg" xmlns:xlink="http://www.w3.org/1999/xlink" width="47" height="46" viewBox="0 0 47 46">
  <defs>
    <clipPath id="clip-path">
      <rect id="Rectangle_2107" data-name="Rectangle 2107" width="47" height="46" rx="23" transform="translate(664 12)" fill="rgba(183,183,183,0.15)"/>
    </clipPath>
  </defs>
  <g id="my_requests" transform="translate(-664 -12)">
    <g id="Group_1820" data-name="Group 1820">
      <g id="Rectangle_2106" data-name="Rectangle 2106" transform="translate(664 12)" fill="none" stroke="#fff" stroke-width="1">
        <rect width="47" height="46" rx="23" stroke="none"/>
        <rect x="0.5" y="0.5" width="46" height="45" rx="22.5" fill="none"/>
      </g>
      <g id="Mask_Group_54" data-name="Mask Group 54" clip-path="url(#clip-path)">
        <circle id="Ellipse_83" data-name="Ellipse 83" cx="30" cy="30" r="30" transform="translate(660 -18)" fill="rgba(255,255,255,0.15)"/>
      </g>
    </g>
    <g id="noun_document_complaint_250967" data-name="noun_document complaint_250967" transform="translate(537.058 11.944)">
      <g id="Group_1818" data-name="Group 1818" transform="translate(139.148 10)">
        <rect id="Rectangle_2089" data-name="Rectangle 2089" width="7.667" height="1.242" transform="translate(3.622 5.719)" fill="#fff"/>
        <path id="Path_4923" data-name="Path 4923" d="M150.246,38.664H160.63c.021-.034.041-.068.064-.1a4.116,4.116,0,0,1,1.176-1.141H150.246Z" transform="translate(-146.624 -28.472)" fill="#fff"/>
        <path id="Path_4924" data-name="Path 4924" d="M150.246,48.2h9.565a9.732,9.732,0,0,1,.126-1.242h-9.691V48.2Z" transform="translate(-146.624 -34.897)" fill="#fff"/>
        <path id="Path_4925" data-name="Path 4925" d="M150.246,57.742h9.587c-.029-.411-.039-.827-.041-1.242h-9.546v1.242Z" transform="translate(-146.624 -41.323)" fill="#fff"/>
        <path id="Path_4926" data-name="Path 4926" d="M150.246,67.283h10.581a4.141,4.141,0,0,1-.376-.592,4.774,4.774,0,0,1-.273-.649h-9.932Z" transform="translate(-146.624 -47.75)" fill="#fff"/>
        <path id="Path_4927" data-name="Path 4927" d="M150.245,76.821h12.738a1.364,1.364,0,0,1-.093-1.242H150.245v1.242Z" transform="translate(-146.623 -54.174)" fill="#fff"/>
        <path id="Path_4928" data-name="Path 4928" d="M158.359,34.87H140.39V11.242h12.251v5.1a.621.621,0,0,0,.621.621h5.1v.981c.2-.007.407-.012.62-.012s.419,0,.621.012v-1.6s0,0,0,0a.622.622,0,0,0-.184-.441L153.7,10.182l0,0a.643.643,0,0,0-.091-.075c-.009-.007-.02-.01-.029-.016a.589.589,0,0,0-.078-.041c-.013-.006-.027-.008-.04-.013a.614.614,0,0,0-.076-.023.607.607,0,0,0-.122-.012H139.769a.621.621,0,0,0-.621.621v24.87a.621.621,0,0,0,.621.621H158.98a.621.621,0,0,0,.621-.621V32.472a5.8,5.8,0,0,1-1.242.58V34.87ZM153.882,12.12l3.6,3.6h-3.6Z" transform="translate(-139.148 -10)" fill="#fff"/>
        <path id="Path_4929" data-name="Path 4929" d="M185.76,50.668a.495.495,0,0,1-.229-.933,1.921,1.921,0,0,0,.935-.973.746.746,0,0,0,.029-.114c-4.224-.136-4.224-3.121-4.224-5.762,0-2.987,0-5.809,5.757-5.809s5.757,2.822,5.757,5.809c0,2.647,0,5.641-4.256,5.764a4.746,4.746,0,0,1-3.757,2.019Zm2.268-12.6c-4.767,0-4.767,1.917-4.767,4.819,0,2.774,0,4.778,3.541,4.778a.658.658,0,0,1,.547.285,1.445,1.445,0,0,1,.046,1.156c-.022.059-.047.118-.073.175a3.578,3.578,0,0,0,1.5-1.37.494.494,0,0,1,.428-.246c3.542,0,3.542-2,3.542-4.778C192.8,39.984,192.8,38.067,188.028,38.067Z" transform="translate(-168.196 -28.239)" fill="#fff"/>
        <path id="Path_4930" data-name="Path 4930" d="M198.934,63.406a.724.724,0,0,1-.5.189.747.747,0,0,1-.5-.187.659.659,0,0,1-.216-.524.7.7,0,0,1,.711-.705.7.7,0,0,1,.51.206.674.674,0,0,1,.21.5A.661.661,0,0,1,198.934,63.406Z" transform="translate(-178.6 -45.149)" fill="#fff"/>
        <path id="Path_4931" data-name="Path 4931" d="M199.112,46.288l-.2,2.334a1.817,1.817,0,0,1-.142.639.372.372,0,0,1-.36.223.358.358,0,0,1-.354-.215,2.12,2.12,0,0,1-.142-.656l-.152-2.267c-.028-.442-.043-.759-.043-.951a.862.862,0,0,1,.207-.613.705.705,0,0,1,.541-.22.546.546,0,0,1,.545.282,1.9,1.9,0,0,1,.137.811A6.072,6.072,0,0,1,199.112,46.288Z" transform="translate(-178.599 -33.28)" fill="#fff"/>
      </g>
    </g>
  </g>
</svg>
