<svg xmlns="http://www.w3.org/2000/svg" width="23.996" height="25.458" viewBox="0 0 23.996 25.458">
  <defs>
    <style>
      .cls-1 {
        fill: #fff;
      }
    </style>
  </defs>
  <g id="orders" transform="translate(-19.67 -19.272)">
    <g id="Group_850" data-name="Group 850" transform="translate(19.67 19.272)">
      <path id="Path_1441" data-name="Path 1441" class="cls-1" d="M9.688,9.856a.686.686,0,0,1,.676-.7H21.609a.7.7,0,0,1,0,1.39H10.364a.686.686,0,0,1-.676-.7Zm.676,4.771H21.609a.7.7,0,0,0,0-1.39H10.364a.7.7,0,0,0,0,1.39Zm0,4.075H21.609a.7.7,0,0,0,0-1.39H10.364a.7.7,0,0,0,0,1.39Zm8.094,2.685H10.364a.7.7,0,0,0,0,1.39h8.094a.7.7,0,0,0,0-1.39Zm10.928,3.526a5.048,5.048,0,0,1-3.677,4.906,4.881,4.881,0,0,1-5.551-2.41H9.223a3.891,3.891,0,0,1-3.833-3.939v-15A3.891,3.891,0,0,1,9.223,4.529H22.75a3.891,3.891,0,0,1,3.833,3.939V20.346a5.087,5.087,0,0,1,2.8,4.568ZM19.636,26.02a5.14,5.14,0,0,1,1.208-4.592,4.829,4.829,0,0,1,4.387-1.517V8.468a2.518,2.518,0,0,0-2.48-2.548H9.223a2.518,2.518,0,0,0-2.48,2.548v15a2.518,2.518,0,0,0,2.48,2.548Zm8.4-1.106A3.585,3.585,0,1,0,24.45,28.6a3.634,3.634,0,0,0,3.584-3.683Zm-1.861-.7H25.127V22.88a.677.677,0,1,0-1.353,0v2.034a.686.686,0,0,0,.676.7h1.722a.7.7,0,0,0,0-1.39Z" transform="translate(-5.391 -4.529)"/>
    </g>
  </g>
</svg>
