<svg xmlns="http://www.w3.org/2000/svg" width="18.661" height="18.661" viewBox="0 0 18.661 18.661">
  <defs>
    <style>
      .cls-1 {
        fill: #949494;
      }
    </style>
  </defs>
  <g id="noun_change_password_3344614" data-name="noun_change password_3344614" transform="translate(-2.67 -52.67)">
    <g id="Group_802" data-name="Group 802" transform="translate(2.67 52.67)">
      <path id="Path_1433" data-name="Path 1433" class="cls-1" d="M32.758,23.034a2.823,2.823,0,0,0-2.82,2.82v1.1h-.353a.783.783,0,0,0-.783.783v4.152a.783.783,0,0,0,.783.783H35.93a.783.783,0,0,0,.783-.783V27.734a.783.783,0,0,0-.783-.783h-.353v-1.1A2.823,2.823,0,0,0,32.758,23.034ZM31.5,25.854a1.253,1.253,0,0,1,2.507,0v1.1H31.5ZM35.147,31.1H30.369V28.517h4.778V31.1Z" transform="translate(-23.427 -18.736)"/>
      <path id="Path_1434" data-name="Path 1434" class="cls-1" d="M17.877,8.547a.783.783,0,0,0-.783.783,7.764,7.764,0,1,1-3.247-6.314H12.813a.783.783,0,1,0,0,1.567h3.016a.783.783,0,0,0,.783-.783V.783a.783.783,0,1,0-1.567,0V1.956A9.329,9.329,0,1,0,18.661,9.33.783.783,0,0,0,17.877,8.547Z"/>
    </g>
  </g>
</svg>
