<svg xmlns="http://www.w3.org/2000/svg" width="17.271" height="17.271" viewBox="0 0 17.271 17.271">
  <defs>
    <style>
      .cls-1 {
        fill: #949494;
        stroke: #949494;
        stroke-width: 0.5px;
      }
    </style>
  </defs>
  <g id="noun_profile_2162157" transform="translate(-1.365 -8.365)">
    <g id="Group_905" data-name="Group 905" transform="translate(0.615 7.615)">
      <path id="Path_1454" data-name="Path 1454" class="cls-1" d="M9.385,1a8.385,8.385,0,1,0,8.385,8.385A8.395,8.395,0,0,0,9.385,1Zm-3.9,14.508a9.721,9.721,0,0,1,.505-1.722c.6-1.489,2.748-1.6,3.394-1.6s2.8.116,3.394,1.605a9.741,9.741,0,0,1,.5,1.722,7.214,7.214,0,0,1-7.8,0Zm8.777-.751a10.871,10.871,0,0,0-.445-1.387c-.578-1.445-2.235-2.308-4.432-2.308s-3.854.863-4.432,2.308a10.782,10.782,0,0,0-.445,1.387,7.267,7.267,0,1,1,9.754,0Z"/>
      <path id="Path_1455" data-name="Path 1455" class="cls-1" d="M13.354,5a3.354,3.354,0,1,0,3.354,3.354A3.357,3.357,0,0,0,13.354,5Zm0,5.59A2.236,2.236,0,1,1,15.59,8.354,2.238,2.238,0,0,1,13.354,10.59Z" transform="translate(-3.969 -1.764)"/>
    </g>
  </g>
</svg>
