<svg xmlns="http://www.w3.org/2000/svg" width="27.249" height="22.432" viewBox="0 0 27.249 22.432">
  <g id="request" transform="translate(-2.5 -10.9)">
    <path id="Path_1508" data-name="Path 1508" d="M21.375,27.365v1.2H8.323a1.565,1.565,0,0,0-.947.316L4.307,31.267V12.707H21.375v5.479l1.807-2.037v-3.7A1.561,1.561,0,0,0,21.633,10.9H4.049A1.543,1.543,0,0,0,2.5,12.449V31.754a1.556,1.556,0,0,0,.861,1.406,1.528,1.528,0,0,0,.688.172A1.7,1.7,0,0,0,5,33.016l3.327-2.639h13.31a1.561,1.561,0,0,0,1.549-1.549V25.644l-1.147,1.291A1.758,1.758,0,0,1,21.375,27.365Z" fill="#fff"/>
    <path id="Path_1509" data-name="Path 1509" d="M18.618,27.836h10.1a.906.906,0,0,0,.918-.918A.924.924,0,0,0,28.715,26h-10.1a.924.924,0,0,0-.918.918A.944.944,0,0,0,18.618,27.836Z" transform="translate(-10.84 -10.769)" fill="#fff"/>
    <path id="Path_1510" data-name="Path 1510" d="M29.633,42.118a.924.924,0,0,0-.918-.918h-10.1a.924.924,0,0,0-.918.918.906.906,0,0,0,.918.918h10.1A.906.906,0,0,0,29.633,42.118Z" transform="translate(-10.84 -21.608)" fill="#fff"/>
    <path id="Path_1511" data-name="Path 1511" d="M17.8,57.389a.906.906,0,0,0,.918.918h8.72l.316-1.807H18.689A.894.894,0,0,0,17.8,57.389Z" transform="translate(-10.911 -32.519)" fill="#fff"/>
    <rect id="Rectangle_2028" data-name="Rectangle 2028" width="8.061" height="3.442" transform="matrix(0.667, -0.745, 0.745, 0.667, 19.82, 22.071)" fill="#fff"/>
    <path id="Path_1512" data-name="Path 1512" d="M88.057,22.866l-1.778-1.606a.5.5,0,0,0-.717.029l-1.061,1.2,2.553,2.295,1.061-1.2A.531.531,0,0,0,88.057,22.866Z" transform="translate(-58.478 -7.29)" fill="#fff"/>
    <path id="Path_1513" data-name="Path 1513" d="M56.815,56.758,59,56.127a.625.625,0,0,0,.229-.143l.631-.688L57.3,53l-.631.688a.515.515,0,0,0-.115.258l-.373,2.237A.512.512,0,0,0,56.815,56.758Z" transform="translate(-38.28 -30.023)" fill="#fff"/>
  </g>
</svg>
