<?xml version="1.0" encoding="utf-8"?>
<!-- Generator: Adobe Illustrator 23.0.3, SVG Export Plug-In . SVG Version: 6.00 Build 0)  -->
<svg version="1.1" id="Layer_1" xmlns="http://www.w3.org/2000/svg" xmlns:xlink="http://www.w3.org/1999/xlink" x="0px" y="0px"
	 viewBox="0 0 27.2 22.4" style="enable-background:new 0 0 27.2 22.4;" xml:space="preserve">
<style type="text/css">
	.st0{fill:#FFFFFF;}
</style>
<path class="st0" d="M23.7,20.2L18.6,15c1.3-1.5,2-3.5,2-5.5c0-4.7-3.9-8.6-8.6-8.6S3.5,4.7,3.5,9.4S7.3,18,12,18
	c1.8,0,3.5-0.5,4.9-1.6l5.1,5.3c0.2,0.2,0.5,0.3,0.8,0.3c0.3,0,0.6-0.1,0.8-0.3C24.1,21.4,24.1,20.7,23.7,20.2z M12,3.1
	c3.5,0,6.3,2.8,6.3,6.3s-2.8,6.3-6.3,6.3s-6.3-2.8-6.3-6.3S8.5,3.1,12,3.1z"/>
</svg>
