<svg xmlns="http://www.w3.org/2000/svg" width="22" height="27" viewBox="0 0 22 27">
  <defs>
    <style>
      .cls-1, .cls-4 {
        fill: none;
      }

      .cls-1 {
        stroke: #fff;
        stroke-width: 1.8px;
      }

      .cls-2 {
        fill: #fff;
      }

      .cls-3 {
        stroke: none;
      }
    </style>
  </defs>
  <g id="cheep" transform="translate(-1287 -262)">
    <g id="Rectangle_14" data-name="Rectangle 14" class="cls-1" transform="translate(1287 262)">
      <rect class="cls-3" width="22" height="27" rx="4"/>
      <rect class="cls-4" x="0.9" y="0.9" width="20.2" height="25.2" rx="3.1"/>
    </g>
    <g id="noun_Sheep_2391224" transform="translate(1289.314 263.93)">
      <path id="Path_1442" data-name="Path 1442" class="cls-2" d="M29.385,45H28.6a.6.6,0,0,0-.423,1.022l.218.218a.847.847,0,0,0,1.2,0l.218-.218A.6.6,0,0,0,29.385,45Zm.073.671-.218.218a.359.359,0,0,1-.5,0l-.218-.218A.1.1,0,0,1,28.6,45.5h.786a.1.1,0,0,1,.073.175Z" transform="translate(-20.306 -29.331)"/>
      <path id="Path_1443" data-name="Path 1443" class="cls-2" d="M13.148,6a2.851,2.851,0,0,0-1.964.822,1.707,1.707,0,0,0-1.025,0,1.73,1.73,0,0,0-2.947,0,1.707,1.707,0,0,0-1.025,0A2.851,2.851,0,0,0,4.223,6C2.446,6,1,7.78,1,9.967s1.446,3.967,3.223,3.967A1.2,1.2,0,0,0,5.328,13.2L6.709,16.48c0,.027-.007.053-.007.081a1.337,1.337,0,0,0,.529,1.064l.055.33a1.419,1.419,0,0,0,2.8,0l.055-.33a1.338,1.338,0,0,0,.529-1.064c0-.027-.005-.054-.007-.081L12.043,13.2a1.2,1.2,0,0,0,1.105.735c1.777,0,3.223-1.78,3.223-3.967S14.925,6,13.148,6ZM7.012,7.281a1.727,1.727,0,0,0-.062.454h.5a1.24,1.24,0,1,1,2.479,0h.5a1.727,1.727,0,0,0-.062-.454,1.221,1.221,0,0,1,.31-.042,1.239,1.239,0,0,1,.41,2.408L10.9,9.71l.013.212c0,.015,0,.03,0,.045a1.238,1.238,0,0,1-2.066.922l-.166-.149-.166.149a1.238,1.238,0,0,1-2.066-.922c0-.015,0-.03,0-.045l.013-.212-.177-.062A1.239,1.239,0,0,1,6.7,7.24,1.221,1.221,0,0,1,7.012,7.281ZM12.4,8.975a2,2,0,0,1,1.19.4l.132.1-.132.1a1.992,1.992,0,0,1-1.132.392c-.018-.051-.033-.1-.053-.153L12.2,9.285a1.734,1.734,0,0,0,.131-.31H12.4ZM9.182,14.51v.019a1.286,1.286,0,0,0-.992,0V14.51A9.884,9.884,0,0,0,7.781,11.7a1.725,1.725,0,0,0,.9-.306,1.727,1.727,0,0,0,.9.306A9.884,9.884,0,0,0,9.182,14.51Zm-4.22-4.7c-.02.051-.035.1-.053.153A2,2,0,0,1,3.777,9.57l-.132-.1.132-.1a2,2,0,0,1,1.19-.4H5.04a1.734,1.734,0,0,0,.131.31Zm-.738,3.629c-1.5,0-2.727-1.557-2.727-3.471S2.719,6.5,4.223,6.5a2.323,2.323,0,0,1,1.484.564,1.739,1.739,0,0,0-.358.336,1.818,1.818,0,0,0-1.126-.4c-1.23,0-2.231,1.335-2.231,2.975s1,2.975,2.231,2.975H4.9A.7.7,0,0,1,4.223,13.438Zm0-.992c-.957,0-1.735-1.112-1.735-2.479s.778-2.479,1.735-2.479a1.354,1.354,0,0,1,.87.345,1.725,1.725,0,0,0-.126.646,2.5,2.5,0,0,0-1.488.5l-.661.5.661.5a2.5,2.5,0,0,0,1.3.488,3.374,3.374,0,0,0,.209,1.928l.027.063Zm1.219-.255a2.9,2.9,0,0,1-.02-2.2l.1-.247a1.732,1.732,0,0,0,.44.3,1.728,1.728,0,0,0,.494,1.131v.773h.5v-.418a1.715,1.715,0,0,0,.295.109,9.4,9.4,0,0,1,.449,2.868v.377l-.012.013-.669.8c-.022.026-.038.056-.058.083Zm3.244,6.453a.92.92,0,0,1-.91-.771,1.352,1.352,0,0,0,.267.027H9.329a1.35,1.35,0,0,0,.267-.027A.919.919,0,0,1,8.686,18.644Zm.643-1.24H8.043a.844.844,0,0,1-.649-1.385l.669-.8a.811.811,0,0,1,1.246,0l.669.8A.844.844,0,0,1,9.329,17.4Zm1.029-1.7-.669-.8-.012-.013V14.51a9.4,9.4,0,0,1,.449-2.868,1.723,1.723,0,0,0,.295-.109v.417h.5v-.772a1.728,1.728,0,0,0,.494-1.131,1.732,1.732,0,0,0,.44-.3l.1.247a2.893,2.893,0,0,1-.02,2.2l-1.514,3.595C10.4,15.758,10.38,15.728,10.358,15.7Zm2.029-3.319a3.374,3.374,0,0,0,.209-1.928,2.5,2.5,0,0,0,1.3-.488l.661-.5-.661-.5a2.5,2.5,0,0,0-1.488-.5,1.725,1.725,0,0,0-.126-.646,1.354,1.354,0,0,1,.87-.345c.957,0,1.735,1.112,1.735,2.479s-.778,2.479-1.735,2.479H12.36Zm.761,1.055a.7.7,0,0,1-.673-.5h.673c1.23,0,2.231-1.335,2.231-2.975s-1-2.975-2.231-2.975a1.817,1.817,0,0,0-1.125.4,1.752,1.752,0,0,0-.358-.336A2.322,2.322,0,0,1,13.148,6.5c1.5,0,2.727,1.557,2.727,3.471S14.652,13.438,13.148,13.438Z"/>
    </g>
  </g>
</svg>
