<svg xmlns="http://www.w3.org/2000/svg" width="24.002" height="20" viewBox="0 0 24.002 20">
  <g id="users" transform="translate(0 -2)">
    <path id="Path_1502" data-name="Path 1502" d="M8,12A4.951,4.951,0,0,1,3,7,4.951,4.951,0,0,1,8,2a4.951,4.951,0,0,1,5,5A4.951,4.951,0,0,1,8,12ZM8,4A2.946,2.946,0,0,0,5,7a2.946,2.946,0,0,0,3,3,2.946,2.946,0,0,0,3-3A2.946,2.946,0,0,0,8,4Zm7.1,18H1a.945.945,0,0,1-1-1,8.024,8.024,0,0,1,8-8h.1a7.919,7.919,0,0,1,8,7.8V21A1,1,0,0,1,15.1,22ZM2.2,20H14a6,6,0,0,0-5.9-5A5.85,5.85,0,0,0,2.2,20ZM21,7a4.951,4.951,0,0,0-5-5,4.2,4.2,0,0,0-2.4.7,1.107,1.107,0,0,0-.4,1.4,1.107,1.107,0,0,0,1.4.4,3.062,3.062,0,0,1,4.1,1.1,3.062,3.062,0,0,1-1.1,4.1,3.186,3.186,0,0,1-3,0,1.03,1.03,0,1,0-1,1.8,5.025,5.025,0,0,0,2.4.6A5.1,5.1,0,0,0,21,7Zm3,14a7.9,7.9,0,0,0-7.7-8h-.2a2.769,2.769,0,0,0-.9.1,1,1,0,1,0,.2,2h.7A5.929,5.929,0,0,1,22,20H18a1,1,0,0,0,0,2h5A.945.945,0,0,0,24,21Z" fill="#fff"/>
  </g>
</svg>
