<?xml version="1.0" encoding="utf-8"?>
<!-- Generator: Adobe Illustrator 23.0.3, SVG Export Plug-In . SVG Version: 6.00 Build 0)  -->
<svg version="1.1" id="Layer_1" xmlns="http://www.w3.org/2000/svg" xmlns:xlink="http://www.w3.org/1999/xlink" x="0px" y="0px"
	 viewBox="0 0 44.7 47.8" style="enable-background:new 0 0 44.7 47.8;" xml:space="preserve">
<style type="text/css">
	.st0{fill:#FFFFFF;}
	.st1{fill:#FFD278;}
</style>
<path class="st0" d="M39.6,20.3h-2.2c-0.3-1.3-0.8-2.5-1.5-3.7l1.6-1.6c0.2-0.2,0.2-0.6,0-0.8l-4.8-4.8c-0.2-0.2-0.6-0.2-0.8,0
	L30.3,11c-1.1-0.7-2.4-1.2-3.7-1.5V7.3c0-0.3-0.2-0.6-0.6-0.6h-6.8c-0.3,0-0.6,0.2-0.6,0.6v2.2c-1.3,0.3-2.5,0.8-3.7,1.5l-1.6-1.6
	c-0.2-0.2-0.6-0.2-0.8,0l-4.8,4.8c-0.2,0.2-0.2,0.6,0,0.8l1.6,1.6c-0.7,1.1-1.2,2.4-1.5,3.7H5.7c-0.3,0-0.6,0.2-0.6,0.6v6.8
	c0,0.3,0.2,0.6,0.6,0.6h2.2c0.3,1.3,0.8,2.5,1.5,3.7l-1.6,1.6c-0.2,0.2-0.2,0.6,0,0.8l4.8,4.8c0.2,0.2,0.6,0.2,0.8,0l1.6-1.6
	c1.1,0.7,2.4,1.2,3.7,1.5v2.2c0,0.3,0.2,0.6,0.6,0.6H26c0.3,0,0.6-0.2,0.6-0.6V39c1.3-0.3,2.5-0.8,3.7-1.5l1.6,1.6
	c0.2,0.2,0.6,0.2,0.8,0l4.8-4.8c0.2-0.2,0.2-0.6,0-0.8l-1.6-1.6c0.7-1.1,1.2-2.4,1.5-3.7h2.2c0.3,0,0.6-0.2,0.6-0.6v-6.8
	C40.2,20.5,40,20.3,39.6,20.3z M39,27.1H37c-0.3,0-0.5,0.2-0.6,0.5c-0.3,1.5-0.9,2.9-1.7,4.1c-0.1,0.2-0.1,0.5,0.1,0.7l1.5,1.5l-4,4
	l-1.5-1.5c-0.2-0.2-0.5-0.2-0.7-0.1c-1.3,0.8-2.7,1.4-4.2,1.7c-0.3,0.1-0.5,0.3-0.5,0.6v2.1h-5.7v-2.1c0-0.3-0.2-0.5-0.5-0.6
	c-1.5-0.3-2.9-0.9-4.2-1.7c-0.2-0.1-0.5-0.1-0.7,0.1L13,37.8l-4-4l1.5-1.5c0.2-0.2,0.2-0.5,0.1-0.7c-0.8-1.3-1.4-2.7-1.7-4.1
	c-0.1-0.3-0.3-0.5-0.6-0.5H6.2v-5.7h2.1c0.3,0,0.5-0.2,0.6-0.5c0.3-1.5,0.9-2.9,1.7-4.1c0.1-0.2,0.1-0.5-0.1-0.7l-1.5-1.5l4-4
	l1.5,1.5c0.2,0.2,0.5,0.2,0.7,0.1c1.3-0.8,2.7-1.4,4.2-1.7c0.3-0.1,0.5-0.3,0.5-0.6V7.9h5.7v2.1c0,0.3,0.2,0.5,0.5,0.6
	c1.5,0.3,2.9,0.9,4.2,1.7c0.2,0.1,0.5,0.1,0.7-0.1l1.5-1.5l4,4l-1.5,1.5c-0.2,0.2-0.2,0.5-0.1,0.7c0.8,1.3,1.4,2.7,1.7,4.1
	c0.1,0.3,0.3,0.5,0.6,0.5H39V27.1z"/>
<path class="st1" d="M34,24.3c0,3.2-1.3,6.1-3.5,8.1c-1.2-3.1-4.3-5.3-7.9-5.3c2.5,0,4.5-2,4.5-4.5s-2-4.5-4.5-4.5s-4.5,2-4.5,4.5
	s2,4.5,4.5,4.5c-3.6,0-6.6,2.2-7.9,5.3c-2.2-2.1-3.5-5-3.5-8.1c0-6.2,5.1-11.3,11.3-11.3S34,18,34,24.3z"/>
</svg>
