<?xml version="1.0" encoding="utf-8"?>
<!-- Generator: Adobe Illustrator 23.0.3, SVG Export Plug-In . SVG Version: 6.00 Build 0)  -->
<svg version="1.1" id="Layer_1" xmlns="http://www.w3.org/2000/svg" xmlns:xlink="http://www.w3.org/1999/xlink" x="0px" y="0px"
	 viewBox="0 0 100 125" style="enable-background:new 0 0 100 125;" xml:space="preserve">
<style type="text/css">
	.st0{fill:#FFFFFF;}
</style>
<title>04</title>
<g>
	<path class="st0" d="M84.3,81.2c0-12.3-7.6-23.3-19.1-27.7L63.8,53l-0.9,1.2l-1.2,1.3c-6.5,6.5-17,6.5-23.5,0.1
		c-0.4-0.4-0.8-0.9-1.2-1.4L36.1,53l-1.4,0.5c-11.4,4.4-19,15.4-19,27.7v7.9h68.6V81.2z M80.3,85.1H19.7v-3.9
		c0-10.1,6-19.2,15.2-23.4c7.7,8.3,20.8,8.8,29.1,1.1c0.2-0.2,0.4-0.4,0.6-0.6l0.5-0.5c9.2,4.2,15.2,13.3,15.2,23.4V85.1z"/>
	<path class="st0" d="M50,48.6c10.4,0,18.8-8.4,18.8-18.8C68.8,19.4,60.4,11,50,11c-10.3,0-18.7,8.4-18.8,18.7
		C31.2,40.1,39.6,48.5,50,48.6z M50,14.9c8.2,0,14.8,6.6,14.8,14.8S58.2,44.5,50,44.5s-14.8-6.6-14.8-14.8
		C35.3,21.5,41.8,15,50,14.9z"/>
</g>
</svg>
