<svg xmlns="http://www.w3.org/2000/svg" width="23" height="27" viewBox="0 0 23 27">
  <g id="Group_1905" data-name="Group 1905" transform="translate(-1286 -598)">
    <g id="noun_utility_bill_77091" data-name="noun_utility bill_77091" transform="translate(1276.419 592.128)">
      <g id="Group_1904" data-name="Group 1904" transform="translate(0 -1)">
        <path id="Path_4998" data-name="Path 4998" d="M21.1,27.026H12.149a.7.7,0,0,1-.61-.758h0a.7.7,0,0,1,.61-.758H21.1a.7.7,0,0,1,.61.758h0A.7.7,0,0,1,21.1,27.026Z" transform="translate(1.691 -5.012)" fill="#fff"/>
        <path id="Path_4999" data-name="Path 4999" d="M34.95,27.026H33.237a.759.759,0,0,1-.76-.758h0a.759.759,0,0,1,.76-.758H34.95a.76.76,0,0,1,.76.758h0A.759.759,0,0,1,34.95,27.026Z" transform="translate(-7.128 -5.012)" fill="#fff"/>
        <path id="Path_5000" data-name="Path 5000" d="M21.1,32.419H12.149a.7.7,0,0,1-.61-.758h0a.7.7,0,0,1,.61-.758H21.1a.7.7,0,0,1,.61.758h0A.7.7,0,0,1,21.1,32.419Z" transform="translate(1.691 -6.642)" fill="#fff"/>
        <path id="Path_5001" data-name="Path 5001" d="M34.95,32.419H33.237a.759.759,0,0,1-.76-.758h0a.759.759,0,0,1,.76-.758H34.95a.76.76,0,0,1,.76.758h0A.759.759,0,0,1,34.95,32.419Z" transform="translate(-7.128 -6.642)" fill="#fff"/>
        <path id="Path_5002" data-name="Path 5002" d="M21.1,37.812H12.149a.7.7,0,0,1-.61-.758h0a.7.7,0,0,1,.61-.758H21.1a.7.7,0,0,1,.61.758h0A.7.7,0,0,1,21.1,37.812Z" transform="translate(1.691 -8.272)" fill="#fff"/>
        <path id="Path_5003" data-name="Path 5003" d="M34.95,37.812H33.237a.759.759,0,0,1-.76-.758h0a.759.759,0,0,1,.76-.758H34.95a.76.76,0,0,1,.76.758h0A.759.759,0,0,1,34.95,37.812Z" transform="translate(-7.128 -8.272)" fill="#fff"/>
      </g>
      <g id="Group_1903" data-name="Group 1903" transform="translate(18.467 9.326)">
        <path id="Path_5004" data-name="Path 5004" d="M25.29,16.191a2.675,2.675,0,0,0,2.675-2.673c0-1.478-2.675-5.453-2.675-5.453s-2.676,3.975-2.676,5.453A2.676,2.676,0,0,0,25.29,16.191Zm.687-4.353a6.023,6.023,0,0,1,.821,1.7.822.822,0,0,1-1.645,0A6,6,0,0,1,25.976,11.838Z" transform="translate(-22.614 -8.065)" fill="#fff"/>
      </g>
    </g>
    <g id="Rectangle_2164" data-name="Rectangle 2164" transform="translate(1286 598)" fill="none" stroke="#fff" stroke-width="1.8">
      <rect width="23" height="27" rx="4" stroke="none"/>
      <rect x="0.9" y="0.9" width="21.2" height="25.2" rx="3.1" fill="none"/>
    </g>
  </g>
</svg>
